/* XPM */
static char *b26068a0b57748c2b9940833d841ca16jxf8goN0gQdn82Ci[] = {
/* columns rows colors chars-per-pixel */
"66 77 8 1 ",
"  c #B55945",
". c #3D3333",
"X c #734C44",
"o c #0C0F2A",
"O c #3C5C37",
"+ c #5D8144",
"@ c #ADB264",
"# c None",
/* pixels */
"###########################ooo##########ooo#######################",
"#########################ooo@@o##oooo###o@@o######################",
"#######################oo+++@@@oo@@@oo##o@@@o#####################",
"####################ooo+++@@@@@@@@@@@@ooo@@@@ooooo################",
"##################oo+++++@@@@@@@@@@@@@@++@@@@o@@@o################",
"#################o+@@@@@+@@@@@@@@@@@@@@@+@@@@@@@@o################",
"###########oooo#o@@@@@@@@@@@@@@@@@@@@@@@@@@@@@@@@o################",
"###########o+++o@@@@@@@@@@+@@@@@@@@@@@@@@@@@@@@@oo##ooo###########",
"###########o++++@@@@@@@@@@@@@@@@@@@@@@@@@@@@@@@@@@oo++o###########",
"###########o++++@@@@@@@@@@@@@@@@@@@@@@@@@@@@@@@@@@@+++o###########",
"#######ooo##o@@+@@@@@@@@@@@@@@@@@@@@@@@@@@@@@@@@@@@@@oooo#########",
"#######o@@oo+@@@@@@@@@@@@@@@@@@@@@@@@@@@@@@@@@@@@@@@@@@@o#########",
"#######o@@@@+@@@@@@@@@@@@@@@@@@@@@@@@@@@@@@@@@@@@@@@@@@@o#########",
"#######o@@@@@@@@@@@@@@@@@@@@@@@@@@@@@@@@@@@@@@@@@@@@@@@o##########",
"########o@@@@@@@@@@@@@@@@@@@@@@@@@@@@@+@@@@@@@@@@@@@@@@@o#########",
"########o@@@@@@@@@@@@@@@@@@@@@@@@@@@@+@@@@@@@@@@@@@@@@@@+o########",
"#######o+@@@@@@@@@@@@@@@@@@@@@@@@@@@@+@@@@@@@@@@@@@@@@@+++oo######",
"######o+@@@@@@@+@@@@@@@@@@@@@@@@@@@@@++@@@@@@@@@@@@@@@@@@@+Oooo###",
"###oooo@@@@+@@@+@@@@@+@@@@@@@@@@@@@@+@@+@@@@@@@@@@@@@@@@@@@+OOo###",
"###o@@+@@@++@@+++++++@@@@@@@@@@@@@@@@@@@@@@@@@@@@@@@@@@@@@@+OOo###",
"###o@@++@+++++@@@@++@@@@@@@@@@@@@@@@@@@@@@@@@@@@@@@@@+@@@@+++o####",
"####o++@@@+++@@@@@@+@@@@@@@@@@@@@@@@@@@@@@@@@@@@@@@@@@+++@@@+o####",
"####o+@@@@+@@@@@@@@+@@@@@@@@@@@@@@@@@@@@@@@@@@@@@@@@@@@++@@@++o###",
"####o@@@@@@@@@@@@@@@@@@@@@@@@@@@@@@@@@@@@@@@@@@@@@@@@@@@@+@@@+o###",
"###o+@@@+@@@@@@@@@@@@@@@@@@@@@@@@@@@@@@@@@@@@@@@@@@@@@@@@@@@@+o###",
"###o++++@@@@@@@@@@@@@@@@@@@@@@@@@@@@@@@@@@@@@@@@@@@@@@@@@@@++++o##",
"###o++++@@@@@@@@@@@@@@@@@@@@@@@@@@@@@@@@@@@@@@@@@@@+@@@@@@@@@++o##",
"###o+++@@@@@@@@@@@@@@@@@@@@@@@@@@@@@@@@@@@@@@@@@@@+@@@@@@@@@@@+o##",
"oooO++@@@@@@@@@@@@@@@@@@@@@@@@@@@@@@@@@@@@@@@@@@@++@@@@@@@@@@@+o##",
"oOOO++@@+@@@@@@@@@@@@@@@@@@@@@@@@@@@@@@@@@@@@@@@+++@@@@@@@@@@@+o##",
"oOOO+++@@@@@@@@@@@@@@@@@@@@@@@@@@@@@@@@@@@@@@@@@@@@+@@@@@@@@@++o##",
"#oOO++@@@@@@@@@@@+@@++@@@@@@@@@@@@@@@@@@@@@@@@@@@@@@@@@@@@@@@@+o##",
"##o+++@@@@@@@@@@@++++@@@@@@@@@@@@@@@@@@@@@@@@@@@@@@@@@@@@@@@@@+o##",
"##o+++@@@@@@@@+@@++@@@@@@@@@@@@@@@@@@@@@@@@+@@@@@@@@@@+@@@@+@@+Oo#",
"##o+++@@+@@@@@++@@+@@@@@@@@@@@@@@@@@@@@@@+++@@@@@@@@@+++@@@++++OOo",
"##oo+++++@@@@++@@@@@@@@@@@@@@@@@@@@@@@@@@@+@@@@@@@@@@@@@+++++++OOo",
"##o+++++++++++@@@@@@@@@@@@@@@@@@@@@@@@@@@@@@@@@@@@@@@@@@@+@@+++ooo",
"##o++++@@+@@++@@@@@@@@@@@@@@@@@@@@@@@@@@@@@@@@@@@@@@@@@@@+@@@+OOo#",
"##o+++@@@@@@@+++@@@@@@@@@@@@@@@@@@@@@@@@@@+@@@@@@@@@@@@@@@@@@+OOo#",
"###o++@@@@@@@++@@@@@@@@@@@@@@@@@@@@@@@@@@@++@@@@@@@@@@@@@@+@@+Oo##",
"##oO++@@+@@@@+@@@@@@@@@@@+@@@@@@@@@@@@@@@@+@@@@@@@@@@@@@@@++++Oo##",
"#oOOO++++@@@++@@@@@@@@@+++@@@@@@@@@@@@@@@++@@@@@@@@@@@@+@@+O++o###",
"#oOOO++++++++++@@@@@@@@@+++@@@@@@@@@@@@@@++@@@@@@@@@@@@++++OOOo###",
"#oooo+++++++O+@@@@+@@@@@+@@@@@@@@@@@@@@@@@+++@@@@+@@@@@+++++OOo###",
"####oO++++++O+@@@@+@@@@@@@@@@@@@@@@@@@@@@@+++@@@@++@@@++++++Oo####",
"#####o++O+++++@@@++@@@@@@@@@@@@@@+@@@++@@@++++@@@+++++++O+++Oo####",
"#####oOOO++O+++++++@@@@+@@@@@@@@@@++++@@+++O++++++++++++O++Oo#####",
"#####oOOOOO++++++++@@@++@@@@@+@@@@+@@+@@@++O++++++++++++OOOo######",
"######oOOOO+++++++++++++@@@@@++@@@+@@+@@@++OO+++O+++++++OOOo######",
"######oOOOO++O+++++++++++@@@+++++++@@++@@++OO+++O+++O+++OOo#######",
"#######oOOOOOO+++++++++++++++++++++++++++++OO+++++++OOOOOo########",
"########oOOOOO+++++++++++++++++++++++++++++OOO++O+++OOOOOo########",
"#########oOOOO+++O+++++++++O+++++++++++++++OO++OO++OOOOOOOo#######",
"##########oOOOOOO+++++++++++OOO+++++++O++++O+++OOOOOOOOOOOo#######",
"###########oOO++O+++++++++++OO++++++++OO++OO++++OOOOOOOOooo#######",
"##########oOOO++OO++O++++++++O++++++++++OOOOO+++OOOOOoOOo#########",
"##########oOOOOOOOOOO++++O+++O+++O+++++++O++O++OOOOOo#ooo#########",
"##########oooOOOOOOOO+++OO+++OOOOO+++O+++O++OOOOOOOo##############",
"############oOOooOOOOOOOOOOOOOO++OOOOOO++OOOOOOOOOOo##############",
"############ooo##ooOOOOOOOOOOOO++OOOOOOOOOOOOOooOOo###############",
"###################ooOOOOOOOOOOOOOOOOOOOOOOOOo#ooo################",
"#####################oo.OOOOOOOOOOOOOOOOOOOOo#####################",
"######################o....OOOOOOOOOOO.....o######################",
"######################o..XXOO..............o######################",
"######################o..XX...XXX...XXXX..XXo#####################",
"#####################o......XX  XX.XXXXX.X Xo#####################",
"####################oXX.XX..XX  XX.XX  X.XXXXo####################",
"###################oXXX.  X.XXXX...XX  ..XX  o####################",
"###################XXXXX  X..    X..XXXX..X   o###################",
"###################XXX.XXXX.X    X.X    ..XX  Xo##################",
"#####################oX  X..XX  XX.X    X..XXXXo##################",
"#####################o   X.X     X.XXX XX.o#XXX###################",
"######################  X.X      ..XX    Xo#######################",
"#########################oX      ...X     Xo######################",
"#########################oX     X###XX    Xo######################",
"##########################XXXXXX#####XX   X#######################",
"###########################XXXX#######XXXX########################"
};
