/* XPM */
static char *e333774c3cf042e2e9a74c3cc2f60900jrFoBehsQvqz5Ety[] = {
/* columns rows colors chars-per-pixel */
"50 50 256 2 ",
"   c #3A030D",
".  c #340C11",
"X  c #49040C",
"o  c #520E0D",
"O  c #59140C",
"+  c #66050B",
"@  c #760408",
"#  c #74180B",
"$  c #671710",
"%  c #542D17",
"&  c #76270E",
"*  c #682213",
"=  c #7B2814",
"-  c #7B3818",
";  c #2C7928",
":  c #3A742E",
">  c #48501D",
",  c #79411A",
"<  c #4C6B25",
"1  c #536D2A",
"2  c #4B742A",
"3  c #577825",
"4  c #54742B",
"5  c #5A752C",
"6  c #547C2C",
"7  c #5B7B2C",
"8  c #576F32",
"9  c #4A7938",
"0  c #5B7633",
"q  c #587536",
"w  c #547C33",
"e  c #5D7B33",
"r  c #5D7B39",
"t  c #677D29",
"y  c #627D2D",
"u  c #617536",
"i  c #627D34",
"p  c #697E34",
"a  c #647D3B",
"s  c #6B7D3B",
"d  c #767530",
"f  c #4F7843",
"g  c #677D42",
"h  c #727A47",
"j  c #870003",
"k  c #950204",
"l  c #871A0A",
"z  c #971805",
"x  c #840010",
"c  c #B60304",
"v  c #B00A0F",
"b  c #A51808",
"n  c #99290C",
"m  c #8E3213",
"M  c #A6280A",
"N  c #B82B07",
"B  c #A9360B",
"V  c #B83607",
"C  c #B33D0D",
"Z  c #B03410",
"A  c #C70302",
"S  c #CB1807",
"D  c #E91700",
"F  c #C62A01",
"G  c #D62004",
"H  c #C93902",
"J  c #D73B02",
"K  c #874817",
"L  c #984619",
"P  c #B8490B",
"I  c #B04E13",
"U  c #B85A16",
"Y  c #8A641C",
"T  c #A86915",
"R  c #B9641A",
"E  c #925025",
"W  c #AF5523",
"Q  c #92722E",
"!  c #B57426",
"~  c #C54506",
"^  c #CA4B0B",
"/  c #D74803",
"(  c #D55708",
")  c #C74C18",
"_  c #C35A16",
"`  c #D25714",
"'  c #E64A01",
"]  c #E75903",
"[  c #F45700",
"{  c #E85B15",
"}  c #DB6709",
"|  c #D97209",
" . c #CB6819",
".. c #D86918",
"X. c #CB7615",
"o. c #D87A16",
"O. c #E56808",
"+. c #F76703",
"@. c #E97709",
"#. c #F67705",
"$. c #FB7B01",
"%. c #E46714",
"&. c #E97717",
"*. c #F57D18",
"=. c #CE5527",
"-. c #C86827",
";. c #D26D20",
":. c #D77725",
">. c #EA7829",
",. c #F57D21",
"<. c #8B7648",
"1. c #368A1A",
"2. c #328D34",
"3. c #6F8708",
"4. c #4A852D",
"5. c #5C832A",
"6. c #579A2F",
"7. c #4E8536",
"8. c #5C8132",
"9. c #578638",
"0. c #63832D",
"q. c #64892D",
"w. c #6A882A",
"e. c #78862C",
"r. c #66982A",
"t. c #78952A",
"y. c #648334",
"u. c #6A8434",
"i. c #668834",
"p. c #6B8A34",
"a. c #65823A",
"s. c #6B843B",
"d. c #658B3B",
"f. c #6C8A3B",
"g. c #728333",
"h. c #738C35",
"j. c #73843B",
"k. c #79863A",
"l. c #728C3D",
"z. c #798D3D",
"x. c #6E9133",
"c. c #64923A",
"v. c #6D913B",
"b. c #749334",
"n. c #7B9637",
"m. c #74933C",
"M. c #7A943C",
"N. c #5BA329",
"B. c #338E43",
"V. c #578842",
"C. c #6C8442",
"Z. c #698646",
"A. c #6D8A42",
"S. c #728542",
"D. c #738B43",
"F. c #7A8C45",
"G. c #76854B",
"H. c #758C49",
"J. c #7A8E4B",
"K. c #679445",
"L. c #749244",
"P. c #7A9342",
"I. c #769B44",
"U. c #7D9945",
"Y. c #75924A",
"T. c #7C934B",
"R. c #7E994C",
"E. c #788D51",
"W. c #7C9553",
"Q. c #8A8C1C",
"!. c #B88F17",
"~. c #AFAB1C",
"^. c #948C36",
"/. c #8F9430",
"(. c #869338",
"). c #A7892C",
"_. c #A59B23",
"`. c #B38E30",
"'. c #89AA32",
"]. c #AFB32C",
"[. c #A4A839",
"{. c #B5A737",
"}. c #DD851B",
"|. c #D3921F",
" X c #EA840C",
".X c #F78705",
"XX c #EB9909",
"oX c #FA9704",
"OX c #E98917",
"+X c #F68A19",
"@X c #EA9A19",
"#X c #F89617",
"$X c #DAAD16",
"%X c #ECA50D",
"&X c #FBA607",
"*X c #FEB406",
"=X c #E7A81A",
"-X c #F9A618",
";X c #FAB818",
":X c #DC8925",
">X c #C58B33",
",X c #D09130",
"<X c #E48624",
"1X c #F78727",
"2X c #E69925",
"3X c #F59624",
"4X c #EE9237",
"5X c #E89A39",
"6X c #D6BA2B",
"7X c #CDAE32",
"8X c #EBA42A",
"9X c #F9A828",
"0X c #FDBB24",
"qX c #FAB72A",
"wX c #EBA435",
"eX c #F5A734",
"rX c #E8B536",
"tX c #F9B834",
"yX c #F5C10B",
"uX c #FDC41A",
"iX c #FCD817",
"pX c #D3C635",
"aX c #FCC828",
"sX c #FED429",
"dX c #E9CC34",
"fX c #FCC433",
"gX c #FAC936",
"hX c #FCDA34",
"jX c #FCD43A",
"kX c #FDE338",
"lX c #8E9547",
"zX c #879946",
"xX c #839549",
"cX c #829A4C",
"vX c #829A52",
"bX c #879956",
"nX c #929957",
"mX c #85A546",
"MX c #93A64F",
"NX c #AEB049",
"BX c #DFAB41",
"VX c #C6B945",
"CX c #EAB349",
"ZX c #B1CC4F",
"AX c #DBCE51",
"SX c #E7CC47",
"DX c #FCCA45",
"FX c #FAD949",
"GX c #F9CB56",
"HX c #FAD856",
"JX c #FDE243",
"KX c #FDEB49",
"LX c #FBE357",
"PX c #F3EB57",
"IX c #E2DA6A",
"UX c #FAEE67",
/* pixels */
"i.0 y y.i y.L.g 7 p.F.C.C.H.j.g.a.y.l.p 8 i a.u.j.0.5 p l.i F.F.T.a Y.F.S.i i q a.i.f.M.x.5 e e i i ",
"0.0.y.5 u.m.P.s.u.w.C.f.p.e 0 7 y.f.f.0 a.e 1 p u.0 8.u.M.a p.lXxX8 e 0 4 8.y i i y.j.xXq.y p e u.y ",
"a.f.D.y T.bXD.u.s.s.5 y.3 5 7 i.i.a.r a.p 1 7 i.7 s i 5 vXR.a.6 s.bXq y.q y.p i 7 e f.p.y 5 p.a u d.",
"a.F.s.l.E.xXH.f.a.0 C.i y y.a.7 y.H.Y.p a.y.5 i.p.7 0.l.D.e a.a.W.T.5 f.a D.a.e u.p.R.0 0 C.vXF.Y.f.",
"P.f.C.R.D.y.f.s.g C.T.a 5 5 y.R.J.nXW.Y.u.y.h.u.5.0 z.b.0.e r H.s.s.a a.f.P.s.p D.S.U.7 f.f.vXR.a.r ",
"l.s.a.b.u 0 p.0 s.s.5 i.f.i d.s.J.nXbXy.y.7 y.y.v.a xXb.e x.mXH.0 q s.s.d.i Y.f.S.C.R.U.f.f.L.f.4 p.",
"y f.u.h.D.v.a.l.P.a.e s.m.n.y.7 D.i i.5 i.f.i.y i.p.l.5.9.VX(.q C.0 a.P.p.C.a.f.f.P.zXU.P.D.P.y 4 p.",
"y.m.0.0 f.0 C.cXa.D.p q 4 f.u.i.l.5 8.7 7 p p.7 y.6.4.MXSX`.9 a q g C.D.s.P.U.vXy.M.a D.zXz.i.i.3 4 ",
"S.h.q.7 y.y.d.5 e 4 0.0.e a.3 D.h 5 7 q.8.i p.8 N.'.AXDX! 7.zX0 i D.D.e D.R.xXT.7 f.s.l.MXP.p.p.7 y.",
"y.m.0.y D.L.i.5 7 h.f.j.s.i i F.a e u.f.cXf.y.(.pXFXGX) w Z.a.y.a.n.p T.F.H.H.A.f.4 e u.e e p.y e y.",
"p s.a 5 i y.M.y < y.0 a.a C.f.l.F.s.D.C.K.b.9 7XHXHX=.T 9.a a.C.S.j.s l.L.cXU.u.i e s.5 4 i e u.y 5.",
"0 8.p p b.a.u.0.0.0 r r y.j.f.a A.f.f.A.'.P.MXCXLX:X/ ).4.1 < y.M.p i p s.7 l.u.a.y 0 1 p.e l.h.y u.",
"7 e p i l.L.D.7 7 f.y.e a T.s.S.u.F.d.{./.V.AXtXgXF %.! 8.y.4 7 i.2 y.7 f.f.P.z.y.j.y.i y.s.P.0.4 i.",
"4 y 5 s.u F.f.D.L.e 5 g D.a.s.cXzXR.(.6X8 K.BX3XqXb ^ :.k.w 3 q.7 S.f.q.y.p.s.C.y bXT.7 q a 7 2 7 y.",
"< < 7 p g C.f.s.u.a.y.l.l.f.H.C.xXV.{.-Xd K.,XW 3XU j ..>Xi.< /.zXa.f.8.u l.7 5 i Z.zXp.y.y.e e x.x.",
"5 4 P.i r f.a.8 5 i a m.p L.P.Y.L.9.NX#X..7.).m I &.L z &.7X4.e.`.w.u.s.< i s.0.i s.y.y i f.y.s.y.7 ",
"4 7 4 e a.T.u.5 y.l.D.j.s L.A.I.P.e (.wX+. .d m # P &.U n @.~.B.! {.2.> s.h S.5.u f.i S.l.s.r E.a 3 ",
"t 7 s.J.a a.m.q.S.xXv.z.a.a.zX[.Z.a.K.rX&.] ^ - * $ I oXOX~ @./.Y -.mXW.C.i.f.a.a.h.p.s.f.P.W.C.3 m.",
"y 7 f.L.W.F.i.p.l.f.D.d.l.2.pX7Xf nXMXCX....V C = * X L *X&XH X.K I /.9.s.3 u.C.a.f.M.D.e R.S.4 i.L.",
"i.0.L.p.a nXi p.e e i.v.u.6.dXyXK.G.AXtX) ..^ M n = m = U -X..V m W e.6 a.8 e i f.0.y.u.C.s.s.4 F.j.",
"l.T.y.0 4 y.y.5 u.s.p.0 p c.dX*X6XNXFXeXN _ ( C P z l T X.( <Xn m L Q i.y.p 5.a.s.f.D.l.vXD.S.a a z.",
"a i d.y i y.7 0.p.u b.a.p.9 pXuX&XqXgXtXR k U Z U o.M l |.| @.R * m Q d.g.0 r.P.J.u.a.s.e lXz.a C.l.",
"7 e f.b.i.y.u.g.L.f.i.c.8.s.U.dXuXoX.XqX-XC l C k R o.b }.2X$.%.= E s 9.).'.'.s.D.H.Z.r f.u.i q f.s.",
"y.i.p.b.7 7 i i e 0 e e.e a.w.x.AXkXqX+XqX#.B l B b XX XXX;.3X[ R , 5.q.}.].v.e f.p q F.F.p.p 0 u.l.",
"a 8.s.zXR.a e D.u.7.(.`.9.7 w.t.4 dXDXDXgX*.] n B b %X*X&X) +X[ :XW Q.$X-.n.h./.d.a F.s.D.H.y.7 7 s.",
"u.7 8 R.J.C.a.i d.7.|.^.7.0.m.h.2 ].0X1XFX9X[ V B N =X&X.X} O.] @.OX8XOXE 7.^.7X9 P.D.w F.l.q.5 a.1 ",
"f.D.y.y.y.H.i a (./.}.).V.g.d.s 2 ZXKX+.DXgX[ ( c :.aXoX]  X( ^ ' -XgXv e.r.!.2X7.F.a.p.S.b.0.3 8 p.",
"j.F.z.s.E.W.s.F.7X!.X.%Xt.7.7 w.N.PXLXoXLXjX$.' =.GXaX*.' ( N ~ ' 0XrX, '.@XoX,Xd.y i.q.5.y.i.m.p.7 ",
"8.2 G.F.J.cXD.mXwX}.T  X=X_.7X].SXJXjXsXKXfX.X..GXhXfX] N b M ( +.fX5XQ.=X$..X).8.5 d.8.y.0.y u.y.7 ",
"i d.F.bXf.f.C.Y.rX$.:X_ &.#X9X9X;XJXKXjXaXsX#.HXjXLXeX( b b P .X,.fX3X@X%.]  .g.8.7 2 7 i.0.a.8.5 p.",
"l.r q.a F.J.C.A.pX&XoX-XOX2X@XqXFXjX9X+.uX&XCXKX*XUX+X#XA c XX.X9XaX-Xo.N C Q 6 2 e u.4 y.f.7 s.0.5 ",
"7 0 6 y.R.H.y.K.{.qXuXuX0X#X-X9X+X+XD ] *X%.FXyX#XKX.X9X@XG .XoXaX0X+X .n L d w /.y e e y.A.H.0.a 8 ",
"e i e C.a.C.k.e P.,X2XgXJXFX3X[ D 2X=X[ oX{ fX&X[ fX0X#.sX@X{ $.hXfX#.;.x W 7 8.(.~.e p.8.H.nXA.s.i ",
"y.s.C.s.g.6 p y.v.P.`.) ..wXGXGX9X+.9XaX*X#.@XoXJ ' -XoX-XsX;X$.jXDX[ :.B  .t a : ].].4.p.a Y.D.5 i ",
"y.a S.a z.y.f.f.5.7.m.`.Z c / 9XjXaX$.9XiX*X.X.X/ F O.OX#.-X;X.XqXhX] :X` }.u.b.1.].NX9 7 D.s.u D.j.",
"xXa 0 0 Z.y.v.l.0 8.w n.2XC M %.sXsXsX$.qXuXoX] ( S }  X_ ] oX$.#.iX@X>.<X-X_.3.!.LX{.r s.y.z.y.D.j.",
"z.0 q u C.0.i F.w lXh.; 7X*.C c SXjXuXgX>.tX*X/ ^ H O.oXP I J | @.iX&XeX>.#XdXrXUXHXQ.9.f.y.l.l.z.q ",
"p s.L.A.a.i y.s u.h.h.: [.#X( c IXKX*XJXS rXfX` A / J -XU j V c X.yX$.9XrX*.qXkXjX|.9.0.a.p.y.a.u.i ",
"S.A.A.y.e a.P.w g.[.w.9 VX-XO.BXUXJX*XOXH -XqXwX_ P ,XwXk & n j ,X&X@.[ eX..O..X<Xj.y.b.C.a D.f.P.T.",
"MXL.h.r a.i.P.2 '.pXt P.FXoXtXHXkXgX#.H } wX.XO.OX#X3XF @ X + ).0X#.} J *.>XF ..k.6 i u.zXH.y.a.a.y.",
"y.z.M.D.T.f.4 f NX6X0.IXhX;XFX-XhX3XJ N >X1X( c ] ] ' } T ~.7XqXoX/ ^ N / wX) ).7.7 y.s.f.F.S.g a h.",
"h.s P.l.y.a e a lXdXQ.UXsXjXfX*.fX*.S -.4XF } H ~ V / #.;X;X&.#.~ V M l / wX>X7 f.u.p.a i p.0 a xXS.",
"L.g.p f.y.L.0 u : 7X$XLXhXhXfX{ 3X#XJ 5X` j } O.k z N ( P k / ( b n # & ~ eX{.2 s.i.x.s.f.a.s.F.s.C.",
"0 7 y.f.f.y.8 D.i 0 6XjXjXhXJX1X{ +X+XeX) + z O.P j N @ X m ^ M l O $ - ( 5X^.w 7 f.7 m.a.a.P.C.f.s.",
"< 4 i.5 i Y.e 5 r s.c.{.jXhXkXhX&.J XXtX:.+ * z P n @ X o B B l X o * B :.).9.i 5 4 y.e 4 a.F.A.q y.",
"7 u.a a.p.f.i e 7 5.i.w g.7X0XaXuX@.H @XtXV   $ # n $   & B l X . o j U ^.2 8.7 y.i q.4 5 y.Y.p 7 i.",
"7 e f.T.cXvXP.4 7 0.y.z.L.V.).-.}.$.' A 2X8XB   O O O O m = . . X # Q j.V.E.C.e i.y.a.l.7 C.xXu.4 u.",
"0.7 f.L.T.a.y.5.y.i a.s.y.lXI.l.Q W / J A  .:.v X X $ O X .   % d j.L.C.f.D.a y.5 l.cXD.u.i y.0.3 7 ",
"0.p.y f.n.i i.y.h.w.A.r f.y.z.(.Y.K.S.Q ! _ }  X| P z * % > p S.a.C.D.P.e 4 p.L.s.y.f.y.f.7 y.P.y.0.",
"f.m.e 4 y.u.i.s g.p q D.T.f.p h.P.f.a.w 9 < g.^.VX).d <.y.U.mXn.D.cXu.f.L.a 0 i.n.y.6 p.f.8 e x.b.y."
};
