/* XPM */
static char *f0e02c6ab5d84efe81f0c45ebe18c4e5pw21wToqiReIbGVJ[] = {
/* columns rows colors chars-per-pixel */
"50 50 256 2 ",
"   c #370A10",
".  c #3D3113",
"X  c #450209",
"o  c #54070C",
"O  c #541210",
"+  c #780004",
"@  c #6A160C",
"#  c #74100A",
"$  c #681E11",
"%  c #512110",
"&  c #76260C",
"*  c #6A2816",
"=  c #752513",
"-  c #007937",
";  c #397332",
":  c #734D1E",
">  c #48751C",
",  c #5B5530",
"<  c #755022",
"1  c #4B6B27",
"2  c #546D27",
"3  c #4C7429",
"4  c #54742B",
"5  c #5A752C",
"6  c #567928",
"7  c #5B7B2C",
"8  c #566F33",
"9  c #4A7B35",
"0  c #5B7633",
"q  c #597637",
"w  c #5D7B32",
"e  c #5D7B39",
"r  c #657F2B",
"t  c #627D2D",
"y  c #767321",
"u  c #657537",
"i  c #637D34",
"p  c #697E34",
"a  c #647D3B",
"s  c #6C7D3B",
"d  c #567F40",
"f  c #687D42",
"g  c #727A47",
"h  c #870103",
"j  c #960104",
"k  c #861709",
"l  c #991808",
"z  c #811714",
"x  c #A7090A",
"c  c #B80203",
"v  c #A61904",
"b  c #B81D03",
"n  c #91240C",
"m  c #9C2C0C",
"M  c #8E2F12",
"N  c #A92707",
"B  c #A9350A",
"V  c #B93807",
"C  c #AA2D12",
"Z  c #863822",
"A  c #CC0901",
"S  c #CA2801",
"D  c #D02708",
"F  c #C63906",
"G  c #D53600",
"H  c #E73C02",
"J  c #944C1A",
"K  c #B44B0E",
"L  c #B85617",
"P  c #B76B15",
"I  c #B8641A",
"U  c #A55224",
"Y  c #936220",
"T  c #8F722C",
"R  c #AF732A",
"E  c #C94608",
"W  c #D54A05",
"Q  c #DD4C03",
"!  c #C75A0D",
"~  c #D45707",
"^  c #C2491B",
"/  c #C75918",
"(  c #D85911",
")  c #E94B03",
"_  c #E95C03",
"`  c #F85900",
"'  c #E25916",
"]  c #CC6E0F",
"[  c #D8650A",
"{  c #D86919",
"}  c #CA7319",
"|  c #D87519",
" . c #E86504",
".. c #ED6C02",
"X. c #F56906",
"o. c #FB6D02",
"O. c #EA7808",
"+. c #F77704",
"@. c #F37C02",
"#. c #EA6C1A",
"$. c #E87918",
"%. c #F87A14",
"&. c #C95425",
"*. c #D06F2B",
"=. c #D87A26",
"-. c #E97A27",
";. c #E67A33",
":. c #8A7A48",
">. c #008A32",
",. c #398A38",
"<. c #578D0C",
"1. c #568528",
"2. c #5C832C",
"3. c #54922E",
"4. c #4A8535",
"5. c #5C8332",
"6. c #598638",
"7. c #599434",
"8. c #65872B",
"9. c #63832D",
"0. c #69832C",
"q. c #65952A",
"w. c #7A932D",
"e. c #648334",
"r. c #6A8434",
"t. c #658A33",
"y. c #6B8A35",
"u. c #65823A",
"i. c #6B843B",
"p. c #668B3B",
"a. c #6C8A3B",
"s. c #728334",
"d. c #718C36",
"f. c #7C8834",
"g. c #73843C",
"h. c #728C3D",
"j. c #7A8D3E",
"k. c #6C9134",
"l. c #679935",
"z. c #62923A",
"x. c #6E923B",
"c. c #739233",
"v. c #74933C",
"b. c #7A933D",
"n. c #7A9938",
"m. c #4CA73B",
"M. c #77A829",
"N. c #73A936",
"B. c #5E8745",
"V. c #5B9242",
"C. c #6C8442",
"Z. c #688645",
"A. c #6D8942",
"S. c #728643",
"D. c #738C43",
"F. c #7B8D45",
"G. c #758549",
"H. c #748D49",
"J. c #7A8D4A",
"K. c #689A45",
"L. c #749143",
"P. c #7A9343",
"I. c #7C9A44",
"U. c #75924A",
"Y. c #7C924B",
"T. c #7B9A4A",
"R. c #788D51",
"E. c #7D9753",
"W. c #7AA342",
"Q. c #919B0E",
"!. c #BB891F",
"~. c #918F30",
"^. c #85983A",
"/. c #BC8B2B",
"(. c #AF922E",
"). c #BA9C37",
"_. c #97A725",
"`. c #91AD37",
"'. c #AAA628",
"]. c #B1A835",
"[. c #B2AD34",
"{. c #D38917",
"}. c #E7860A",
"|. c #F98505",
" X c #E5950F",
".X c #FB9706",
"XX c #E98619",
"oX c #F58817",
"OX c #EA9819",
"+X c #F89919",
"@X c #D7B008",
"#X c #EFA00E",
"$X c #FCA706",
"%X c #FCB507",
"&X c #E8A318",
"*X c #FAA719",
"=X c #FBB619",
"-X c #CB8326",
";X c #D98927",
":X c #D4942F",
">X c #DD9928",
",X c #E78B25",
"<X c #E69228",
"1X c #F79924",
"2X c #F89329",
"3X c #E88935",
"4X c #EA953A",
"5X c #CEB030",
"6X c #E8A828",
"7X c #F7A728",
"8X c #E9B62E",
"9X c #F9B828",
"0X c #EAA638",
"qX c #FAA834",
"wX c #FAB836",
"eX c #96C038",
"rX c #A9C637",
"tX c #BBC83D",
"yX c #F2C815",
"uX c #FDCA19",
"iX c #D0C633",
"pX c #DEC436",
"aX c #FBC729",
"sX c #FDD52A",
"dX c #EBC839",
"fX c #FBCA38",
"gX c #E9D438",
"hX c #FDD736",
"jX c #FDE032",
"kX c #80874A",
"lX c #839549",
"zX c #859948",
"xX c #829A52",
"cX c #889955",
"vX c #939B52",
"bX c #87A845",
"nX c #8FA64F",
"mX c #B9B846",
"MX c #B5B64A",
"NX c #9FAD6A",
"BX c #D68546",
"VX c #D1B443",
"CX c #F5B247",
"ZX c #B7C34B",
"AX c #D3C84D",
"SX c #FAC846",
"DX c #EAD949",
"FX c #FBD847",
"GX c #FBCA59",
"HX c #E5D750",
"JX c #F8DA57",
"KX c #FDE648",
"LX c #FCE955",
"PX c #FAF151",
"IX c #E6C56A",
"UX c #FBF364",
/* pixels */
"r.0 r e.i e.L.f 7 y.F.C.C.H.g.s.u.e.h.p 8 i p.r.g.2.5 p h.i F.F.Y.a U.D.S.i i q u.y.a.b.k.5 w w i i ",
"9.9.e.5 r.v.P.i.r.0.C.a.y.w 0 7 e.a.a.0 u.w 2 p r.0 5.r.n.u.y.lXlX8 w 0 4 5.t i i e.g.lX8.t p w r.r ",
"u.a.D.r T.cXD.r.i.i.5 e.6 5 7 t.r.u.e u.p 1 7 r.7 s i 5 xXY.l.2.i.cXq e.q e.p i 7 w a.y.t 5 y.a u p.",
"u.F.i.h.R.lXH.a.u.e C.i r e.u.7 e.H.U.p a.e.5 t.d.5 t.b.Z.k.rXe E.Y.0 a.a D.u.w r.y.T.0 0 C.xXH.U.a.",
"P.a.C.T.D.e.a.i.f C.Y.a 5 5 e.T.J.vXE.U.i.e.d.r.2.5.v.5.K.AX~.Z.i.i.a u.a.Y.i.p D.S.T.7 a.a.xXE.p.e ",
"h.i.u.c.i 0 y.0 i.i.5 t.a.i p.i.J.vXcXe.e.7 e.p l.m.N.ZXSXR Z.Y.0 q i.i.p.i U.a.S.C.T.I.a.a.L.a.2 y.",
"t a.r.d.D.x.u.h.P.u.w i.v.n.e.7 D.i e.5 y.a.r.5 `.rXJXSXI K.D.0 i.0 u.P.y.C.u.a.a.P.zXT.P.D.P.r 4 y.",
"e.v.e.0 a.0 Z.zXu.D.i q 4 a.r.r.h.5 5.7 5 z.r.k.pXJXGX^ s L.e.e 0 a i.D.i.Y.T.xXe.b.a D.zXh.r.y.6 4 ",
"S.d.8.7 e.e.p.5 w 6 9.0.w u.6 D.g 5 7 2.t.l.4.VXGXLX{ / t.u.zX0 i D.D.w D.Y.lXY.7 a.i.h.nXP.y.y.7 e.",
"e.v.9.r D.L.y.5 7 d.a.g.i.i i F.a w u.a.`.e.bXCXFX6XD -Xp.f e.e.u.v.p T.D.H.H.A.a.4 w r.w w y.t w e.",
"p i.a 5 i e.b.r 1 e.0 u.a C.a.h.H.i.B.mX].,.MXqXaX} D =.f.q z.K.G.g.s D.L.xXI.r.i w r.5 4 i w r.t 2.",
"0 5.p p c.u.r.9.9.0 e e e.g.a.a A.p.K.8X).K.mX{ 7X} j { /.3 1 M.v.i e.i i.7 h.r.u.t 0 2 y.w h.d.r r.",
"7 w p i h.L.D.7 7 a.e.w a Y.r.S.a.D.W.9X}.V.].I &.$.Z l -.).1.0.'.7 i 7 a.a.P.j.u.g.t.i e.i.P.9.2 t.",
"4 t 5 i.i F.a.D.L.w 5 f D.u.i.T.W.cX6.8Xo.*.n.Y # / #.Z B $.'.>.(.5Xm.0.e.y.i.Z.t cXY.6 q a 7 3 6 e.",
"1 1 6 p f C.a.i.r.u.e.h.h.a.G.bXzXD.4.5XoX_ } < = @ ! |.I V }.^.b.] bX7.u h.7 5 i C.zXy.e.e.w w k.k.",
"5 4 P.i e a.u.8 5 i a v.i L.I.iXv.a.9 mX,X{ W K * $ o L $X XE {.y B (.m.2 i i.9.i i.e.t i a.e.i.e.7 ",
"4 7 4 w u.Y.r.5 e.h.D.g.s z.rXsXI.0 p.DX=.{ ! N B = = o P %XO.E U C R 3.i.g A.9.i a.i S.h.i.e R.a 6 ",
"r 7 i.J.a u.v.9.S.lXx.h.i.4.tXuX5X- AXSX[ / [ V N l z J U ] OXV M U T xXC.0.z.6.u.d.y.i.a.P.E.Z.2 v.",
"t 7 a.L.E.F.y.y.h.a.D.p.y.D.ZXuX%XpXDXfX*.l / F L ! l z {.[ $.} z Z Y j.6.6 q.l.u.a.b.D.w Y.S.4 r.L.",
"t.9.L.y.a vXi y.7 5.e.x.7.b.I.gX%X.X=XaX7XB n K v P | j P 6X..$.Z z T 3 f.0.M.c.r.9.e.r.C.i.i.4 D.g.",
"h.Y.e.0 2 e.e.5 a.i.y.6.k.v.a.^.DXaX.X@.9X|.m n B j {.[ ] $.1Xo.I = ~.,.~.'.eXp.i.a.D.h.xXD.S.u a j.",
"a i p.r 9.e.7 9.y.i y.~.^.5.y.M.n.gXFXwXqX+X_ n m x {.$X%X~ <Xo.$.J y N.-X).x.N.Y.a.u.i.w zXj.a Z.h.",
"7 w a.c.y.e.r.s.L.p.n.:X9 C.b.8.3 _.aXCXFXwX` E m x ] %X%X[ | X. .;XI 6X{ s.6.'.P.H.Z.e g.r.i q a.r.",
"e.r.y.c.6 7 i e.7 7./.-X; r.y.i.r.q.KX|.qXFXo.Q B c >X%X@.O.O.Q ~ |.9X<XJ 7.6.<X^.e q H.F.y.p 0 r.h.",
"a 5.i.zXE.a w p.^.[./.OXw.4 i v.> `.UX%X1XLX|. .A *.fX=X_ @.~ F W +.hX^ 2 _.!.*XzXe D.i.k.D.r.7 7 i.",
"r.7 8 E.J.Z.r.9 VX>XR }.@Xq.n.Q.M.HXLX%XFXLX.X..&.GXsX1XQ F N V ) +XfXU M.&X|.<XG.v.D.1.a.j.9.5 u.2 ",
"a.D.e.e.e.H.p d VX%.-XL +X&X6XpX8XsXKXhXKXhX$X$.JXhXFX+.F N l ! o.qXwX-X&XX.@.R V.S.z.7.kXc.9.6 8 y.",
"g.F.j.i.R.Y.i.f [.*XoX;X| XXoXoX=XKXKXfX+XsX|.JXsXJXGX@.D N B #XX.fX=X*X~ W / ^.z.i t.y.9.9.t.v.y.7 ",
"5.3 G.F.J.lXP.Z.`.aX%X%X*XOX7X9XfXwX|.) $X%X3XPX$XLXqX.XXXc O.$XoXsX.XOXb B Y p.q.4 a.w e.9.t r.e.5 ",
"i p.F.cXa.a.D.Z.A.0X7XsXhXfX|.X.H $.XXA .XO.0XsXo.fXfXo.aX}.H |.=XsX|.$.m M T 4.c._.1 0 t.9.u.5.5 y.",
"h.e 8.a H.J.Z.D.7.^.-X=.8XFXFXCX%.` 9X&X.X@.<X=X_ ..aX.X*XsXOX..*XKX+.-.M K T 1.; '.[.1.l.a.w i.8.5 ",
"7 0 7 e.E.H.e.L.l.4.b./.c F ,XSXFX7Xo.9XuX$X}.+X_ S  .#X|.9XuX.X+XKXO.-.L | Y 4.2.q.iXt.e.A.D.9.a 8 ",
"w i w C.u.C.g.e.P.x.9 ^.{.C b  .9XhXaXo.9XuX$XO._ F E O.[ X.*X.XX.sX&X-.=.O.(.1.<.'.HXe.e.H.cXA.i.i ",
"e.i.C.i.s.6 r.i L.a.1.; ].XXB c 6XsXsX=X2X9X%X..W F F .X[ L ) }.) yXuX,X;.OX8X~.5XLXAX1.y.a H.D.5 i ",
"e.a S.a j.e.y.d.t.v.a.x.bX7X( c BXUX$XjXqX=.hX..S E W |.}.h E F Q %X$X*X0X#.9XhXPXFX).6.7 D.i.u D.g.",
"lXa 0 0 Z.e.x.D.5 `.c.w.^.wX%.S IXUX%XsX{ {.sX0Xb S c 6X{.+ m N C =X.X` wX<XoX=X=X>Xv.a.u.e.j.e.D.g.",
"h.0 q u C.9.p F.4.[._.3 MX9X|.CXPXPX=XO.S OX7X+X<X| >X0Xv & + + /.*XO.) %.>XS ..| b.7 i.u.e.h.h.h.q ",
"p i.L.A.u.i e.s 3.pX_.u.LX%XwXFXaXhXo.E E 4XoXG Q |.%.Q k o : ).aX@.( E G 4XI ( ^.6 y.e.u.y.e.u.r.i ",
"S.A.A.e.w u.P.i 6.dXQ.ZXLXyXFX+X9XwXH b *.3X_ V Q W Q  . XyXdX7X.XF E N b ,X:XR z.r.r.c.C.a D.a.P.Y.",
"vXL.d.e u.r.F.w ,.5X@XAXKXsXFX%.7X7XQ &.4Xc ~ [ V N V Q .X}.S ..K N m # N XX0Xd.5.t w r.zXH.e.u.u.e.",
"e.j.b.D.Y.a.3 C.lXt.8XdXKXsXFX2X#.2X@.;.3Xh m ..K + N E l + K ~ l n @ @ B ,XVX0.e.6 e.i.a.D.S.f a d.",
"d.s P.h.e.a 0 C.F.q p.5XFXsXKXhX#.' +XqX3Xh $ N ! k l #   & V B # o @ & E 3X~.6 x.r.y.a i y.0 a lXS.",
"L.s.p a.e.L.0 q w a.0 B.].dXsXjXaX .W &XwXV X @ n B k O   m B k X % % v *.(.4 7 r.y.k.i.a.u.i.D.i.C.",
"e 7 e.a.a.e.8 D.a r.a.i.6.T.VX1X9X$X_ S 6X7Xj X O @ & X $ B n     X h I f.3 e.w 7 a.7 L.u.u.P.C.a.i.",
"1 4 r.7 i U.7 5 q a.b.D.u.a.e T U [ ) G A ,X,XM   % O % = $     X < T 2.5.w t.w 4 4 e.w 4 u.H.A.q e.",
"7 r.a u.y.a.i w 7 2.e.a.w i p Z.Z.s T I E A ~ ' x + + + X   . , kXu.6.7 d.0 w 6 e.i 9.4 5 r.U.p 6 y.",
"6 w a.Y.lXxXP.4 7 9.e.h.Y.C.C.L.a.L.B.U.f.T R {.6X4XL : , 2 u.xXNXA.P.u.C.R.C.7 r.e.p.h.7 C.lXr.4 r.",
"9.7 a.L.Y.u.e.2.e.i u.i.w zXzXh.C.C.i b.a 4.B.9 t.nXy.u.u.w Z.s U.L.L.C.i.D.a e.5 h.xXD.r.i e.9.6 7 ",
"9.y.t a.b.i r.e.d.y.A.e a.e.d.^.J.H.H.e.0 t 0.5 3 4 u.F.w 0 P.F.w g.D.P.w 4 a.L.i.e.a.e.a.7 e.P.e.9.",
"y.v.w 4 e.r.t.s s.r.q D.Y.a.p d.P.a.a w w 1 i u zX6 2.:.i P.zXd.D.xXu.A.P.a 0 r.n.e.6 y.a.8 w k.c.e."
};
