/* XPM */
static char *_f18cc51fd474e27d4ce84343b600f22aRVFm2WL6yrqRI1a[] = {
/* columns rows colors chars-per-pixel */
"50 50 247 2 ",
"   c #000002",
".  c #00010D",
"X  c #000C0C",
"o  c #000215",
"O  c #020C13",
"+  c #00021B",
"@  c #000C19",
"#  c #031515",
"$  c #0A1616",
"%  c #051916",
"&  c #0A1B17",
"*  c #01151A",
"=  c #041B1B",
"-  c #0A1C1B",
";  c #0D2216",
":  c #04231C",
">  c #09261A",
",  c #0D221C",
"<  c #12241C",
"1  c #17291B",
"2  c #142C1D",
"3  c #1C321E",
"4  c #19341D",
"5  c #21291C",
"6  c #000020",
"7  c #051921",
"8  c #051922",
"9  c #032424",
"0  c #0D2421",
"q  c #042B25",
"w  c #0E2A23",
"e  c #122621",
"r  c #142C23",
"t  c #1A2D25",
"y  c #162C29",
"u  c #1A2D28",
"i  c #053128",
"p  c #153124",
"a  c #1C3424",
"s  c #14332A",
"d  c #1B342B",
"f  c #1D3A2B",
"g  c #153331",
"h  c #223522",
"j  c #243B24",
"k  c #293F25",
"l  c #20362A",
"z  c #233C2C",
"x  c #2A3E2A",
"c  c #233D30",
"v  c #203E3A",
"b  c #1B412D",
"n  c #184238",
"m  c #2A4225",
"M  c #24432C",
"N  c #2B4628",
"B  c #2A442B",
"V  c #264B2E",
"C  c #344B25",
"Z  c #324628",
"A  c #334C2C",
"S  c #2F552E",
"D  c #3C5227",
"F  c #35512B",
"G  c #3B542B",
"H  c #3D5A2C",
"J  c #254333",
"K  c #2B4433",
"L  c #2C4A35",
"P  c #284638",
"I  c #2C4A3A",
"U  c #324C35",
"Y  c #3C4D31",
"T  c #324D3A",
"R  c #295636",
"E  c #345234",
"W  c #3B5533",
"Q  c #3D5B34",
"!  c #34523C",
"~  c #3A563C",
"^  c #355B3C",
"/  c #3B5A3D",
"(  c #3B613A",
")  c #4F6C1D",
"_  c #506D1F",
"`  c #41492A",
"'  c #425C2D",
"]  c #4B5B2B",
"[  c #415632",
"{  c #4B5431",
"}  c #445C33",
"|  c #425D3B",
" . c #4A6629",
".. c #4E692C",
"X. c #516C28",
"o. c #4C7129",
"O. c #537225",
"+. c #577727",
"@. c #5B7C24",
"#. c #54732B",
"$. c #5A752C",
"%. c #5B7B2C",
"&. c #456234",
"*. c #4B6533",
"=. c #4E6B35",
"-. c #45633C",
";. c #4A633A",
":. c #47693E",
">. c #4D6A3A",
",. c #526D34",
"<. c #596F32",
"1. c #526D3B",
"2. c #557234",
"3. c #5B7534",
"4. c #5D7B33",
"5. c #55743A",
"6. c #5B763A",
"7. c #5C7B3B",
"8. c #657F2B",
"9. c #627D2D",
"0. c #637437",
"q. c #637D34",
"w. c #697E34",
"e. c #637D3B",
"r. c #6A7D3A",
"t. c #767D39",
"y. c #355441",
"u. c #3B5642",
"i. c #3C5C43",
"p. c #3F5F48",
"a. c #3E6146",
"s. c #3C644B",
"d. c #415E44",
"f. c #415F4A",
"g. c #436344",
"h. c #4A6645",
"j. c #4D6A45",
"k. c #43644A",
"l. c #486749",
"z. c #466A4C",
"x. c #4A6B4B",
"c. c #516D42",
"v. c #4E724D",
"b. c #547343",
"n. c #5B7C45",
"m. c #547449",
"M. c #597848",
"N. c #5C7C4D",
"B. c #4A6D51",
"V. c #506E52",
"C. c #4D7252",
"Z. c #4E7858",
"A. c #537453",
"S. c #547B54",
"D. c #587957",
"F. c #5B7D54",
"G. c #547B59",
"H. c #617E42",
"J. c #687E48",
"K. c #8A7A48",
"L. c #5E8229",
"P. c #5E8032",
"I. c #568438",
"U. c #5E823B",
"Y. c #63822D",
"T. c #69882C",
"R. c #648334",
"E. c #698434",
"W. c #668934",
"Q. c #6B8A35",
"!. c #65833B",
"~. c #6B853B",
"^. c #66883A",
"/. c #6C8A3B",
"(. c #748435",
"). c #728D35",
"_. c #72843C",
"`. c #728C3C",
"'. c #6E9034",
"]. c #6E913B",
"[. c #749135",
"{. c #74923B",
"}. c #7A9739",
"|. c #79933C",
" X c #5F8144",
".X c #5D8254",
"XX c #54815B",
"oX c #5B875B",
"OX c #5A835C",
"+X c #648343",
"@X c #6C8542",
"#X c #6D8A42",
"$X c #64844B",
"%X c #6A844B",
"&X c #66894A",
"*X c #6B8B4B",
"=X c #718643",
"-X c #738B43",
";X c #7B8C45",
":X c #748C4A",
">X c #79884B",
",X c #6E9242",
"<X c #749143",
"1X c #7A9343",
"2X c #7A9946",
"3X c #74924B",
"4X c #7B924B",
"5X c #7D994B",
"6X c #658651",
"7X c #668A56",
"8X c #658B58",
"9X c #738D52",
"0X c #7A8D54",
"qX c #6E9255",
"wX c #6D935B",
"eX c #729454",
"rX c #7A9351",
"tX c #799957",
"yX c #749A5C",
"uX c #5B8562",
"iX c #5C8A61",
"pX c #5B9168",
"aX c #638C62",
"sX c #618A64",
"dX c #669165",
"fX c #6A9463",
"gX c #6B9767",
"hX c #6D9A6D",
"jX c #749B63",
"kX c #729D6D",
"lX c #789E68",
"zX c #6F9C72",
"xX c #6CA06F",
"cX c #79A269",
"vX c #78A472",
"bX c #81953F",
"nX c #879746",
"mX c #839549",
"MX c #8D9748",
"NX c #829B4C",
"BX c #829B54",
"VX c #849956",
"CX c #92A24D",
"ZX c #83A35C",
"AX c #8AA55C",
"SX c #83A566",
"DX c #9FAB69",
/* pixels */
"E.3.8.R.q.R.<XJ.%.Q.;X@X@X:X_.(.!.R.`.w.<.q.^.~.t.@.#.w.`.q.;X;X4Xe.3X:X=Xq.R.6.!.W.~.|.'.+.4.4.q.q.",
"Y.Y.R.+.E.{.1X~.E.T.@X/.^.4.3.%.R././.3.!.4.) q.3XeXR./.}.!.Q.MXmX<.4.3.#.P.9.q.q.R._.mXT.9.w.4.E.8.",
"!.~.-X8.5XBX-X~.~.~.$.R.+.$.$.W.E.!.7.!.w.2.*XcXxXhXjXqX5X5X!.%.~.VX3.R.3.R.w.q.%.%./.Q.9.$.Q.e.0./.",
"!.;X~.`.0XmX:X/.!.6.@Xq.8.R.!.%.9.:X3Xe.!.yXvXiXx.OXdXxXvX$X!.!.rX4X3./.e.-X!.4.E.^.5X3.3.@XBX:X3X/.",
"2X/.@X5X-XR./.~.H.@X4Xe.$.+.R.5XtXZXSX4X3XOXz.k.k.C.S.G.iXkX%X-X@XE.e.!./.1X#Xw.-X=X2X%././.BX5XR.7.",
"`.~.!.[.q.3.Q.3.~.~.+.^./.!.W.rXvXdXjXwXjXiXC.G.G.z.d L k.XXwX4X3.+XtXAXAXe.3X/.=X@X5X2X/./.<X/.O.Q.",
"9./.~.).-X].!.`.<X!.4.w.`.}.!.qXm.g.j.8XkXC.g.P g.M.M.i.u.p.iXaXeXjX8XF.eXZX~.~./.2XnX2X1X-X1X8.#.Q.",
"R.}.Y.$./.3.+XNX!.`.r.%X<X{.E.yXN.9 = N / 0 y l.$X!.2Xb.y z c G.kXfXz.T s.wXSXVXY.|.e.-XnX`.E.W.@.#.",
"=X).T.$.R.R.^.3.q.O.3XZXyXyXwXdXfXN.F.aXh., k.m.1.2.=.&.r T G.OXgXhXdXx.iXdXzXvXeX/.~.`.CX1X^.^.$.R.",
"R.{.9.8.-X<XW.+.%.).&Xa.c x.Z.C.fXyXgXgXkXv.J U G N = j U sXzXhXF.oXaXgXaXk.k.z.gXlX!.~.4.4.Q.9.4.R.",
"w.~.e.+.q.R.|./.5.^.e.-.[ G.Z.C.l.i.M..XdXhXu.= z h < . l.sXA.G.8XS.n.#XeXh.d.A.C.sXrX#.#.q.4.~.9.L.",
"3.P.w.w.'.~.cXvXkXxXdX.X.Xz.k.C.C.$X*XH.x.OXG., * @ * I ~ h.! ! i.j.7.6.7.m.y.C.z.s.7XX.Q.4.`.`.8.E.",
"$.4.q.q.<XjXdXXXaXoXOXz.C.K f.a.u.[ *.,.Q z.G.x.x ~ g.A.l.T ! K V.A.N C f i.J . d 9 C.*Xq.~.1XY.O.W.",
"#.9.3.R.jXiXp.g.y.k.8XkXdXsX~ e ~ 5.A U h.! ! L G.XXeXtX.Xd.y I c J J r c a c.N.Q U %XR.3.!.$.#.@.R.",
"X. .@.w.7XG.G.A.i.$XqXm.6XF.A.l &.,.-.~ d.K t ! G.F.5.7.+X*Xc.P r d r l = W %X9XN.$XnXR.R.R.4.4.'.'.",
"$.#.|.~.oXs ! i.m.#X+Xb.Q -.h.! 2 = z l 0 c r x.G.V.P A 5.2.} & # t e & & Q b.| ( $X#X3X!.E.R.~.R.4.",
"#.%.O.*Xv.J a t F.H Z A.g.J J I r r y = - , t i.! d k.V.Y } G r - O o + o h N 4 M n.yXqXVX@X4.9Xe.@.",
"8.%.~.jXa.r K ! k.P U x.K j.c.Y = e , r r r z I J T J T K < k r J J W >.Q 8 X < : ^ u.x.8XAXrX+XO.{.",
"9.%./.eXd.= ! z * t f . E *X3XM.t # o , r a L T f d f r t ,   T B./ 5.+X$X| = % l B.i.1 g.BX=X#.E.<X",
"W.Y.<X`.N.u.z.y - d d d E >.;.;.h p A N : d U 2 r < r , p f L i.b.n.W *.*.&.2 , ! C.oX7X%X~.r.#.-X(.",
"`.4XR.$.O.*XA.  P d - - r 2 2 2 L M.5.Q h./ f 2 a < p w i L x.T m 1.} C F j = a.F.6X8XiXSXcXcX*Xq.;X",
"e.q.R.E.+XU.>.y z r ; ; O # $ = ~ 5.&.&.j.! a a J r r N Z r = z F h N = j a x.A.i.g.v.wXiXXXpXgX:X/.",
"3.$.#X3X>.M j & , - # a 9 O # - L m ' *.' } ~ t < & W 5.e.Q U M m a * < $ & h.x.h.g.n.eX6Xl.! uXjX!.",
"R.Y.#X&X:.M W ! r : ! N.6.N s J = @ j k m &.E f & a g.;.G 1.+X-.9 , # o o t J T d.| Q &.>.C.x.s.wX`.",
"e.P.w.NXg.l i.C.! A.aXM.e.=.L z.! < = @ @ : < M a M ! x *.*.C N r L J A 1.A.J K g.! L % K I P y.F._.",
"~.%.3.ZX9XA.i.f $X6XD.D.k h.x.u.a.J 0 H &.Q g.K < a f j m 3 = a C.C.n.H.2.M.k.J t T L t J T r v 7X_ ",
"#X`.yXhXgXv.: U 5.3.G A i.~ i.k.T J >.7.2.1.N.a.t , V S = 2 2 U C.g.,.>.&.c.N.K = * t I u r y / n.W.",
"_.4XfXXXz.i.J z F ' ,.} f.l l P p L =.&.m 7.7.M.d $ V M a a z f L x.T z >.5.5.| = r - , T d.h.2XQ.%.",
"%.7.aXa.| +X} = A 3 ; c J c z a r M E m *.G > E z O M ^ L d w J z ! k.x.F ' A a 0 , # 0 j. X~.E.!.@.",
"4.,X.Xq ~ } W l - = , y.d , 2 * d z f % h h r ..M z i.i.n.H.c.a.M , r J A m j z ! r * < 2 z j.4.$.^.",
"`.&Xh.c u.= d L - # - , * $ . k v.z.a - r N D D h T M.n.*.=.5.E a t , 0 * * % L u.z f = : X V #XY.$.",
"@.U.g.8 = f L d * , , % , - m 7.+Xb.^ < , k 2.} u u.b.7.Q G F L p # # = & % O r r J k.j.;.Q :XY.e.2.",
"4.q.6.N./ K g s e w - O # * F H &.>.! 0 r t y G *.d w a *.j = l z.i.0 % # = r & r 0 w ! @X3XAX#X~.q.",
"R.!.@X/.`.U.+X%X-.* # r c i.J j j 2 f f s i.g.! a.l 3 2 p 2 a z.C.l.! r @ 0 I J a -.~ n M.!.:X-X$.q.",
"R.e.=Xe.`.R.4.1.F.0 = / j.j.d.r * = = f H Q -.$Xn.! <.2.a @ ~ M.c.E U Q N r r d D =.5.a.k.:X~.0.-X_.",
"mXe.3.3.*Xj.* o T r p.M.5.W g.i.s , 0 J 2.=.5.*.' x A A 9 f >.,.&./ 1.,.*.f 2 , z D G f b.!.`.R.-X_.",
"`.2.6.0.@XQ X t = d P x j &.&.W Q z r z 2 Z G G m J i.! C i.E C C | -.D Z J p r f r - n XXR.`.`.`.6.",
"w.~.<X@X#X-.6 uXz.b P L L x N H ' M s f = 3 2 < p d c *...g J 9 D =.d.K ! L c f r @ ~ &X+XQ.R.!.!.q.",
"=X#X#XR.q.1.J.wXj.f U f T I z 4 2 r L ^ V b m j 8 = e.0.A ;.a 0 3 4 h T ! d s ! N.1.e.[.~.e.-X~.1X4X",
"CX1X`.7.R.^.1X$.I.BX%Xo e * % a 8 r ! ^ R R C *.t h ..*.6.e.Z * = 3 m 2 = w p g.$XR.9.~.nX:XR.!.!.R.",
"R.|.|.-X4X/.o.@XmX!.W @ , & % = N M i Y 5.3.] *.A 8 1./.`.r.- = r , * = - o 2.~.R.@.R.~./.-X=XH.e.`.",
").r.1X`.R.e.3.~.;X5.N = ; ; < o H Q.X.$.R.E.{ 6.Z j  Xn.5.3.x = i p % % ; 9  .Y./.!.^.e.q.^.3.e.mX=X",
"<X(.w./.R.<X3.3.4.`...8 = O o < ' 1Xw.#.[...*./.9 A M.n E R.e.e.5.= < 2 4 A ' %.E.W.'.~./.!.~.-X~.@X",
"6.$.R.~./.R.<.-Xe.E.~.,.N ` [ ,.4.!.!.+./.e.4.~.z x *.A R.!...@X0.- + , * k R.4.%./.$.<X!.!.1X@X/.~.",
" .#.E.%.q.3X4.$.6.~.|.<Xq.~.r.2.3.e.-X:X-Xe._.mX9 j ;Xr.#.L.4.0.e.e.Z p C 3.Q.%.#.#.R.4.#.!.:X*X3.R.",
"%.E.e.!.Q./.q.4.%.L.R.~.4.q.r.#X=X@X:X0X_.e.~.r.0 e q.q.4.#.!.>XVX!.~.4.`.3.4.@.R.q.Y.#.$.E.3Xw.@.W.",
"@.4./.4XNXBX1X#.@.Y.R.`.4X@X@X-X/.-X+X4X^.7.0XC 8 8 5 q.3.#./.BXDX*X2X!.@X9X@X4.E.R.R.`.%.~.mXE.#.E.",
"Y.%./.<X4X!.R.L.R.q.!.~.4.MXmX`.@X@Xq.|.r.U.-X` - 1 Z ~.R.%.e.~.:X<X<X@X~.-Xe.R.$.`.NX-X~.q.R.Y.@.%.",
"Y.Q.9./.}.q.E.R.).T.#X7.~.R.`.bX3X:X:XR.3.%.Y.#.o.$.e.1X4.4.2X;X4.t.-X2X4.#.^.<X~.R./.R./.%.R.1XR.Y.",
"/.}.4.#.R.E.W.r.(.w.6.-X4X/.w.`.1X/.e.4.4.) q.0.MXO.R.K.R.1XNX[.-XBX!./.1Xe.3.E.}.R.+.^./.<.4.'.[.R."
};
