/* XPM */
static char *dc8b1f427f624d63a5565c5c4b231f63MOu4Dm5cMEwe1uY1[] = {
/* columns rows colors chars-per-pixel */
"50 50 238 2 ",
"   c #010002",
".  c #0A0705",
"X  c #020315",
"o  c #060D16",
"O  c #0A0B15",
"+  c #01001D",
"@  c #070A1A",
"#  c #090C1C",
"$  c #0E131B",
"%  c #030626",
"&  c #0B1324",
"*  c #03122C",
"=  c #0C162B",
"-  c #0E192D",
";  c #131A29",
":  c #121B2C",
">  c #010335",
",  c #0C1B37",
"<  c #0D1C34",
"1  c #131E34",
"2  c #0C2036",
"3  c #0E203C",
"4  c #152334",
"5  c #192334",
"6  c #12213D",
"7  c #1E2A3B",
"8  c #222A31",
"9  c #212D3D",
"0  c #2B3130",
"q  c #3F5D19",
"w  c #364D36",
"e  c #495E14",
"r  c #516C00",
"t  c #5A7800",
"y  c #4E6B1F",
"u  c #58751E",
"i  c #647A00",
"p  c #4C6926",
"a  c #536D2A",
"s  c #4E7329",
"d  c #537425",
"f  c #587526",
"g  c #5A7A25",
"h  c #54732A",
"j  c #5A752C",
"k  c #56792B",
"l  c #5C7B2C",
"z  c #4C6B34",
"x  c #566F32",
"c  c #567433",
"v  c #5B7633",
"b  c #587736",
"n  c #5D7B33",
"m  c #5D7C3A",
"M  c #647D27",
"N  c #627D2D",
"B  c #616D30",
"V  c #627D34",
"C  c #697F35",
"Z  c #647538",
"A  c #647D3A",
"S  c #6A7E3B",
"D  c #001B50",
"F  c #0A2247",
"G  c #122643",
"H  c #172945",
"J  c #142C4C",
"K  c #172E4F",
"L  c #193354",
"P  c #1B3659",
"I  c #19375B",
"U  c #212E44",
"Y  c #253344",
"T  c #25374A",
"R  c #283649",
"E  c #2D3C4D",
"W  c #2A3E57",
"Q  c #1B3C65",
"!  c #364845",
"~  c #3C5645",
"^  c #314153",
"/  c #364959",
"(  c #1C4372",
")  c #214065",
"_  c #24456C",
"`  c #3B4D63",
"'  c #3E5369",
"]  c #264A74",
"[  c #264B75",
"{  c #2C537E",
"}  c #385673",
"|  c #46584F",
" . c #556C44",
".. c #58764A",
"X. c #4B6356",
"o. c #526D52",
"O. c #647E41",
"+. c #687C46",
"@. c #647C56",
"#. c #42576C",
"$. c #445C73",
"%. c #5D7A67",
"&. c #4A647C",
"*. c #677D69",
"=. c #8A7A48",
"-. c #678501",
";. c #69841B",
":. c #72801A",
">. c #5E822A",
",. c #5E8032",
"<. c #5A8336",
"1. c #63832D",
"2. c #69872B",
"3. c #788E2A",
"4. c #648334",
"5. c #6A8434",
"6. c #668935",
"7. c #6B8A35",
"8. c #65833B",
"9. c #6B843C",
"0. c #678939",
"q. c #6C8A3B",
"w. c #718333",
"e. c #728C35",
"r. c #7C8935",
"t. c #72853D",
"y. c #728C3D",
"u. c #7A8D3D",
"i. c #6E9034",
"p. c #6D903A",
"a. c #749234",
"s. c #74923C",
"d. c #7A933D",
"f. c #79993B",
"g. c #5A804B",
"h. c #668243",
"j. c #6B8442",
"k. c #6D8A42",
"l. c #6B8847",
"z. c #728543",
"x. c #768447",
"c. c #738C43",
"v. c #7A8C44",
"b. c #748C4A",
"n. c #7B8D4A",
"m. c #6F9041",
"M. c #749243",
"N. c #7A9443",
"B. c #7E9945",
"V. c #769249",
"C. c #7B934B",
"Z. c #7D994C",
"A. c #658557",
"S. c #768D50",
"D. c #7B8C53",
"F. c #7C9252",
"G. c #7D9A53",
"H. c #688867",
"J. c #6F8F76",
"K. c #82971B",
"L. c #86953A",
"P. c #848C47",
"I. c #829B44",
"U. c #82964A",
"Y. c #899649",
"T. c #829B4B",
"R. c #839A52",
"E. c #889954",
"W. c #8E9857",
"Q. c #8EA357",
"!. c #91A773",
"~. c #2D5682",
"^. c #285787",
"/. c #325B88",
"(. c #2A5B92",
"). c #396493",
"_. c #366798",
"`. c #376798",
"'. c #3971A5",
"]. c #3C7AB4",
"[. c #496884",
"{. c #526C84",
"}. c #58738D",
"|. c #406F9E",
" X c #587B93",
".X c #607E97",
"XX c #4373A3",
"oX c #4479AA",
"OX c #467FB4",
"+X c #62819B",
"@X c #749593",
"#X c #77A398",
"$X c #5B85A9",
"%X c #4D83B6",
"&X c #5285B7",
"*X c #5794B2",
"=X c #6A8CA8",
"-X c #6B93AA",
";X c #7394AB",
":X c #6C9BBE",
">X c #779BB7",
",X c #79A5A8",
"<X c #7CA1BA",
"1X c #4D8AC2",
"2X c #5A94C6",
"3X c #5290C9",
"4X c #5B9BD1",
"5X c #6499C9",
"6X c #7DA9C6",
"7X c #69A7DA",
"8X c #77ACD5",
"9X c #73ACDB",
"0X c #7AB3D6",
"qX c #79B8E8",
"wX c #6BB3F0",
"eX c #83A9B0",
"rX c #86AAC6",
"tX c #89B1CD",
"yX c #8CB4D2",
"uX c #96BCDA",
"iX c #94C2D0",
"pX c #A6CAD5",
"aX c #88C2EE",
"sX c #9AC3E2",
"dX c #9FC9E8",
"fX c #87C7F5",
"gX c #91CEF7",
"hX c #8CD5FB",
"jX c #9BD7FB",
"kX c #A4CCE9",
"lX c #A6DDF8",
"zX c #B5EAF8",
"xX c #B6EBFC",
"cX c #C9FBFF",
"vX c #D3FBFC",
"bX c #D8FCFA",
"nX c #E8FEFD",
"mX c #F3FEFA",
/* pixels */
"6.v N 4.V 4.M.+.g 7.v.j.j.b.t.w.8.4.y.C x n 8.9.x.,.c 8.c.V n.v.C.A V.c.z.V V b 8.6.q.d.i.j n n V V ",
"1.1.4.j 5.s.d.9.5.2.j.q.7.n v l 5.q.q.v 8.4.u M M t t -.K.2.e.W.U.x n v h ,.M V V 4.t.P.2.N C n 5.M ",
"8.q.c.N Z.E.c.5.9.9.j 4.f j j 6.6.8.8.8.B w / } ^.'.oX'. XJ.z r e.E.c 4.b 5.C V l n q.7.N j 7.A B q.",
"8.v.9.y.S.U.b.q.8.m j.V N 4.8.g 4.l. .Y Q (.].3XwXwXfXhXhXgXqX*X%.3.m k.A c.8.n 8.7.Z.v v j.R.b.V.q.",
"N.q.j.Z.c.4.q.9.O.j.C.A j j 1.Z.@.2 D ( _.].1X4X7XqXfXjXzXcXvXvXlX-Xr 9.k.C.9.5.c.z.B.l q.q.R.G.8.m ",
"y.9.8.a.V v 7.m 9.9.j 6.q.4.0.| > F ( { (._.'.OX1X4X7XqXgXlXxXbXnXnXiX .7.A V.q.z.j.Z.B.q.q.V.q.d 7.",
"M q.5.e.c.p.8.y.M.8.n 8.d.d.! % 6 K I Q ] ~.(._.oX%X2X7XqXgXlXxXvXnXmXpXb t.8.q.q.N.Y.B.N.c.N.N h 7.",
"4.f.1.v q.v h.T.8.c.C b l ! % : , F K I Q _ [ ~.).'.OX3X7XqXfXjXxXvXmXmXpX;.T.T.6.d.A b.I.d.6.6.g h ",
"z.e.2.j 4.4.0.j n f 4.2.X.> $ * = , F K L I ) [ ~./.`.oX&X5X9XaXjXxXvXmXnXeXK.C.l q.9.y.Q.N.7.7.j 4.",
"4.s.1.M c.M.6.j l e.7.j.Y X # % & = , 3 G K I Q [ { /.`.oX&X5X9XaXjXxXvXmXzXg.y.q.h n 5.n n 7.N n 4.",
"C 9.A j V 4.d.N p 4.l o.> . O @ % & = < 3 G K L Q _ [ /.`.oX&X5X9XaXjXxXbXvX#Xi A n 5.j h V n 5.N >.",
"v ,.C C a.8.5.1.1.v A | X O O O # & & = , 3 G H L I _ [ ~.).XX&X5X9XaXjXxXcX6Xi h.N v a 7.n y.y.N 6.",
"j n C V y.M.c.g l 7.h.^   O O # & & & = = < 3 G H L I ) [ ~.).XX&X5X9XaXjXxX0X:.q.t.6.4.4.9.N.1.d 6.",
"h N j 9.V v.q.c.V.l ..K   # # & & & & & = - < 1 6 H L I ) [ ~.).XX%X5X9XaXhX4XZ 4.E.Z.g b A j s g 4.",
"p p g C O.j.q.9.5.4.@.T   $ & ; ; ; ; = = = - , 1 6 G K I ) [ { ).XX%X2X9XqX].e V l.I.q.4.4.n n i.i.",
"j d N.V m q.8.c c 1.%.W   ; : 5 5 5 1 : ; ; - - < 1 6 G K I ) [ ~.).XX%X2X3X^.u 5.9.5.V V q.4.9.4.n ",
"h l h n 8.Z.6.j 8.3.H.[   5 9 9 9 9 7 5 4 : : : - < , 6 G K I ) ] ~.).|.oX'.I g V q.V z.y.9.m S.A g ",
"1.l 9.n.A 8.s.1.x.L.J.[.+ Y E ^ ^ E R Y 7 5 1 : : - < , 6 G K I ) [ ~././.( ! j.8.y.7.9.q.N.F.h.f s.",
"N l q.M.F.v.6.7.y.7.G.$XF E ` #.#.` / E Y 7 5 1 : - - < , 6 G K I Q _ [ ] D ! k.4.q.d.c.n Z.z.h 0.M.",
"6.1.M.7.A Y.V 7.l m -.,X{ ^ &.{.{.&.#.` ^ R 9 5 : : - < , , 6 G K L I Q L >  .4.q.1.4.5.j.9.9.h c.t.",
"y.C.4.v h 4.4.j 5.j.-.@X&XW }.+X+X X{.$.` ^ Y 7 5 : : - - < , 6 G K K K * 4 q.q.S q.c.y.R.c.z.A A u.",
"A V 0.M V 4.l 1.7.V e.c.6X^.}.=X;X=X.X{.$.` E Y 7 4 : = = = - < , 3 3 < + ~ 5.B.C.5.8.9.n Y.u.A j.y.",
"j n q.a.6.4.5.w.M.q.9.-.#X2X[.;X>X>X;X+X{.#./ E 9 5 : = & = = = - = = X > ..5.q.c.b.j.m q.8.V b q.9.",
"4.6.7.a.g l V V n b V c u 6X'.=XrXrX<X;X.X&.' ^ Y 7 : = & & & & & % o + ~ 6.q.v q.C c v.v.7.C v 8.y.",
"A ,.9.I.Z.A n c.6.4.4.k.-.J.8X_.rXyXrX<X=X}.$./ E 7 : ; & & & # @ @   6 z 2.q.9.7.A c.9.k.b.5.g l 9.",
"5.l x G.n.8.8.n q.6.q.c.8.t eX3X$XyXuXrX>X+X{.' E 9 5 ; & # # O @ . > @.r.0.s.M.m N.c.k v.y.1.j 8.a ",
"k.c.5.4.4.b.V 9.8.c.U.c y.5.;.tX].>XuXyXrX=X}.#.^ Y 5 ; & # O @ . % ~ 4.9.V 4.c 8.c.9.7.n.a.1.g x 7.",
"z.n.u.9.S.C.j.x.8.V c.q.b q.t H.9XoXyXuXyX>X.X$./ Y 5 ; & # @ O   T b.7.,.q.4.l s.n 6.6.1.1.6.f.7.l ",
",.s x.v.n.U.c.c.4.4.k.7.V 1.m t eX5X$XsXuXrX=X[./ Y 5 ; # O O   H ..5.5.j 0.l h 6.h q.v 4.1.N 5.5.g ",
"V 0.v.E.y.q.c.j.8.8.O.8.q.7.c 8.i eX&X6XdXyX;X}.` R 5 & # @ . > X.0.8.g n 4.n n 4.g h l 6.1.8.,.j 7.",
"y.m 2.8.b.n.O.c.7.n v A k.B.k.A V A 6X%XuXsX<X X' R 5 & O O X / c.Z.y.0.q.V p d d V 8.V 4.q.l 9.1.j ",
"j v k 4.G.b.4.s.k.j.c V M.8.7.n c.;.!.2X:XkXtX+X#.R 4 & O   U D.V.l.N.d.T.V q 5.6.g V n 4.k.b.1.A c ",
"n V n j.8.j.t.5.B.U.V 4.n 5.9.e.b.G.3.eX1XuXsX=X$.R : # . > ..U.D.2.>.b M.8.k 7.e.p V q.5.b.Q.k.9.V ",
"4.9.j.9.w.k 8.V N.9.l C b 4.N M.Q.b.b.N.:X5XkX>X$.Y ; $   ~ V.j.b.5.q.j.T.T.q.V 5.2.8.6.6.A b.c.f V ",
"4.A z.A u.4.7.y.4.8.8.P.P.4.v.q.0.j.8.r J.2XsXyX&.U ;   4 D.v.z.8.c.q.N.d.N.N.c.a.g O.9.k c.9.Z c.t.",
"Y.A v v j.4.p.c.v C 9.7.r.0.n.y.c.z.D.O.r.-X0XsX[.7 ; X  .q.S T.I.E.l B.A k.Y.B.7.V s.9.8.4.y.5.c.q.",
"y.c b Z j.1.V v.m P.y.l q.q.d S n.c.E.M.e.H.:XdX X, O 8 j.q.c.b.C.b.4.n j.s.I.N.l q.1.8.8.4.e.y.y.b ",
"C 9.M.k.8.V 4.S A 9.5.b 6.4.4.k.E.C.q.c.j.5.@XsX-X+ + z 9.V.c.C.M.9.8.h n 8.s n C N 6.4.8.7.4.8.8.V ",
"z.k.k.4.n 8.N.>.l.D.7.8.A y.8.4.7.j.q.O.c.2.A.yX<X  0 Z 9.c.m.C.N.4.n 4.6.v n 6.7.0.8.a.j.A c.q.N.C.",
"Q.M.y.m 5.0.v.b <.W.Z.j V b v k l 6.q.A q.m.1.<XrX  w V.8.q.j.O.b.k n V 4.6.V 4.6.l n 5.U.b.4.8.8.5.",
"4.u.d.c.C.q.s j.Y.C I.q.4.4.n n n v k.x.7.k.L.@XrX%  .7.q.I.N.b.j.Y.n.c M.g 4.5.4.g 4.9.q.b.z.O.A y.",
"e.S N.e.5.A v j.v.V 0.l V q.4.8.v 7.j 4.V t.d.H.eXH m f.8.N.B.A n P.Y.9.q.4.1.1.p.5.7.A V 7.v A U.z.",
"M.w.C q.4.M.v b n q.V z.y.9.m A A y.7.4.7.7.8.k.;X/ U.s.9.8.9.9.M.d 6.V 4.7.v l 0.6.i.9.q.8.9.c.9.j.",
"m j 4.q.q.5.x c.A 8.q.9.y.N.z.c n 8.8.f q.A n 7.@XX.5.A 7.n p j.Z a n ,.k v 5.l l q.j M.8.8.N.j.q.9.",
"p h 6.l V V.n j b q.d.c.A y.S c n A c.b.c.m x.L.J.o.r.Z s >.n Z A q.v k 6.v 6.n j h 4.n h 8.b.l.b 5.",
"l 5.A 8.7.q.V n l >.4.q.n V A k.z.j.b.S.z.A 9.2.*.X.7.v 4.k 8.x.E.8.8.V q.v n g 5.V 1.h f 0.V.C g 6.",
"g n q.C.U.R.N.h g 1.4.y.B.j.j.M.q.b.h.C.q.m D.j @.E.1.n n h q.R.!.l.N.8.j.S.j.n 0.4.8.y.g j.U.5.h 6.",
"1.l q.M.C.8.4.>.4.V 8.9.n Y.I.y.j.j.V d.S <.c.C m W.5.S 5.l A 9.b.V.M.j.9.c.A 4.f e.T.c.5.V 4.1.g l ",
"1.7.N q.d.V 6.4.e.2.k.m q.4.y.L.C.b.b.4.v l 1.h z h 8.v.n n N.n.n t.c.N.n h 7.M.9.4.q.4.q.l 4.N.V 1.",
"7.f.n h 4.6.6.S w.C b c.C.q.C y.N.q.A n n y V Z Y.h 1.=.4.N.T.a.c.E.8.q.N.C v 6.f.5.k 7.q.x n i.a.5."
};
