/* XPM */
static char *_2d2bb93831a43578567685a9854ee88puvEXvuOwOzmETR9[] = {
/* columns rows colors chars-per-pixel */
"50 50 236 2 ",
"   c #030003",
".  c #070709",
"X  c #060714",
"o  c #00001B",
"O  c #060919",
"+  c #090C1C",
"@  c #0D121A",
"#  c #121418",
"$  c #040726",
"%  c #071227",
"&  c #0B1324",
"*  c #0C162B",
"=  c #0E192C",
"-  c #151A28",
";  c #121A2C",
":  c #010637",
">  c #0D1B34",
",  c #0E1D3B",
"<  c #131E34",
"1  c #18202F",
"2  c #0E213C",
"3  c #162032",
"4  c #1A2334",
"5  c #11213D",
"6  c #1C273A",
"7  c #212D3E",
"8  c #22353D",
"9  c #334B3E",
"0  c #435D1E",
"q  c #587500",
"w  c #54740E",
"e  c #637A03",
"r  c #6C7809",
"t  c #465C3D",
"y  c #4B6926",
"u  c #4E6C25",
"i  c #536D2A",
"p  c #4E7327",
"a  c #527225",
"s  c #577725",
"d  c #5B7C24",
"f  c #54742B",
"g  c #5A752C",
"h  c #567A2B",
"j  c #5B7B2C",
"k  c #4E643C",
"l  c #566D35",
"z  c #557233",
"x  c #5B7633",
"c  c #5D7B33",
"v  c #56763A",
"b  c #5D753A",
"n  c #5D7B3A",
"m  c #637C29",
"M  c #627D2D",
"N  c #637537",
"B  c #627D34",
"V  c #697E34",
"C  c #647D3B",
"Z  c #6B7E3C",
"A  c #0B2244",
"S  c #122643",
"D  c #192A47",
"F  c #142C4C",
"G  c #0B2C58",
"H  c #183254",
"J  c #193759",
"K  c #1B3659",
"L  c #222F41",
"P  c #253344",
"I  c #28374A",
"U  c #2B3A4C",
"Y  c #383F4D",
"T  c #042E66",
"R  c #1D3C63",
"E  c #374A48",
"W  c #3B5549",
"Q  c #314254",
"!  c #35475B",
"~  c #1E416A",
"^  c #224165",
"/  c #274A67",
"(  c #23456D",
")  c #3B4E64",
"_  c #3E5369",
"`  c #264C76",
"'  c #2A517E",
"]  c #3D5878",
"[  c #3A7474",
"{  c #415242",
"}  c #435B57",
"|  c #4C6449",
" . c #516F4E",
".. c #5A7547",
"X. c #647D41",
"o. c #6B7D42",
"O. c #627F49",
"+. c #727A4E",
"@. c #42586D",
"#. c #445C73",
"$. c #566864",
"%. c #486178",
"&. c #4D657D",
"*. c #667861",
"=. c #8A7A49",
"-. c #5C8011",
";. c #688401",
":. c #798801",
">. c #66841A",
",. c #718610",
"<. c #5E812A",
"1. c #5E8132",
"2. c #5A8236",
"3. c #668426",
"4. c #63832D",
"5. c #69842D",
"6. c #65892D",
"7. c #6C8A2C",
"8. c #768D2A",
"9. c #648334",
"0. c #6A8434",
"q. c #668935",
"w. c #6B8A35",
"e. c #65823B",
"r. c #6B843C",
"t. c #678A3A",
"y. c #6C8A3B",
"u. c #718333",
"i. c #718D35",
"p. c #72843C",
"a. c #728C3D",
"s. c #7A8E3E",
"d. c #6E9034",
"f. c #6E913B",
"g. c #749234",
"h. c #74923C",
"j. c #7A953D",
"k. c #7B983A",
"l. c #6B8443",
"z. c #6A8747",
"x. c #6D8A43",
"c. c #718642",
"v. c #768647",
"b. c #738C43",
"n. c #7A8D45",
"m. c #748C49",
"M. c #7B8D4A",
"N. c #749143",
"B. c #7A9343",
"V. c #7D9944",
"C. c #75924A",
"Z. c #7C934B",
"A. c #7E994C",
"S. c #678558",
"D. c #778D52",
"F. c #7D9351",
"G. c #7E9954",
"H. c #698977",
"J. c #708578",
"K. c #82963D",
"L. c #829A44",
"P. c #839549",
"I. c #899648",
"U. c #829B4C",
"Y. c #889050",
"T. c #829A52",
"R. c #899C52",
"E. c #86985B",
"W. c #929A58",
"Q. c #8FA155",
"!. c #A1AD69",
"~. c #1B4C86",
"^. c #2C5685",
"/. c #305983",
"(. c #335B88",
"). c #2E5E93",
"_. c #2E689D",
"`. c #396593",
"'. c #396797",
"]. c #366EA6",
"[. c #3D78B1",
"{. c #4E6C85",
"}. c #567289",
"|. c #5C7A94",
" X c #617F98",
".X c #4574A4",
"XX c #4679AA",
"oX c #487FB5",
"OX c #5E868C",
"+X c #5A8798",
"@X c #6F938C",
"#X c #62819B",
"$X c #558BAE",
"%X c #4C87BB",
"&X c #5589B9",
"*X c #5789BB",
"=X c #6688A4",
"-X c #789BA8",
";X c #6998B3",
":X c #7597B3",
">X c #79A3BC",
",X c #4988C2",
"<X c #518CC1",
"1X c #5A95C7",
"2X c #599BD5",
"3X c #6E99C4",
"4X c #659CCD",
"5X c #689FD0",
"6X c #7CA8C6",
"7X c #68A6D8",
"8X c #73A6D3",
"9X c #65ABE5",
"0X c #79B4E3",
"qX c #72B4EA",
"wX c #85A485",
"eX c #84A7BE",
"rX c #88B1B4",
"tX c #85ABC7",
"yX c #88B1CE",
"uX c #8DB4D2",
"iX c #94BAD7",
"pX c #9AC1DF",
"aX c #9AC4E4",
"sX c #85C3F2",
"dX c #8FCAF5",
"fX c #93D1F6",
"gX c #96D4FA",
"hX c #A6D5F0",
"jX c #AAE5FD",
"kX c #B6EBF9",
"lX c #BAF4FF",
"zX c #C9E8F1",
"xX c #C4F4FC",
"cX c #DAFAFB",
"vX c #E4FEFB",
"bX c #F9FFFC",
/* pixels */
"0.x M 9.B 9.N.o.j w.n.l.l.m.p.u.e.9.a.V z B e.0.p.<.g V a.B n.n.Z.C C.m.c.B B v e.q.y.j.d.g c c B B ",
"4.4.9.g 0.h.j.r.0.5.l.y.w.c x j 9.y.y.x e.c i V 0.x 2.0.k.C w.I.P.l c x a 1.m B B 9.p.P.6.M V c 0.m ",
"e.y.b.M Z.R.b.0.r.r.g 9.s g j q.0.e.n e.V i j 0.z C 9.g T.A.e.h r.E.x 9.x 9.V B j c y.w.M g w.C N t.",
"e.n.r.a.D.P.m.y.e.b l.B M 9.e.j 9.m.C.V y.9.g 6.e.l 4.y.b.c e.e.F.Z.x y.C b.e.c 0.w.A.x x l.T.m.C.y.",
"B.y.l.A.b.9.y.r.X.l.Z.C g g 9.A.m.W.G.C.r.9.i.5.v ..h.g.4.9.C m.r.r.C e.y.Z.r.V b.c.V.j y.y.T.A.e.n ",
"a.r.e.g.B x w.b r.r.g q.y.B t.r.m.Y.E.9.0.M 9.4.S.*.I.d.9.j m.n.x x r.r.t.B C.y.c.l.A.V.y.y.N.y.a w.",
"m y.0.i.b.f.e.a.B.e.c r.j.k.9.j b.B 0.g w.y.9.r $.J.8.6.9.L.c.x r.x e.B.w.l.e.y.y.B.I.V.B.b.B.M f w.",
"9.k.4.x y.x l.U.e.b.V b a y.0.0.a.g 9.j j V w.w } @X-.q.r.b.9.n x C r.b.r.Z.V.T.9.j.C b.L.j.0.q.d f ",
"c.i.6.j 9.9.t.g c s 4.5.c e.d b.+.g j 6.1.B q.u ! -XM y.9.e.L.x B b.b.c b.Z.P.Z.j y.r.a.Q.B.w.w.j 9.",
"9.h.4.m b.N.q.g j i.y.p.r.B B n.C c 0.y.U.y.w.i I eXD.9.e.l.9.9.e.j.V Z.v.m.m.x.y.a c 0.c c w.M c 9.",
"V r.C g B 9.j.M u 9.x e.X.l.y.a.m.r.b.l.N.a.4.k : tXH.>.l.n e.l.b.p.Z a.N.U.V.0.B c 0.g a B c 0.M <.",
"x 1.V V g.e.0.4.4.x n b 9.p.y.C x.y.y.x.R.L.m.t   tX-X;.1.y y B j.V B B r.j a.0.e.M x i w.c a.i.M q.",
"j c V B a.N.b.j j y.9.c C Z.0.c.0.m.y.B.s.B.C.%   tXyXz.7.9.g j 0.a 9.j y.y.B.s.e.p.q.B 9.r.B.4.a q.",
"f M g r.B n.y.b.N.c g X.b.e.r.U.L.R.c j.C h.k o $ :XaX@X7.n a 6.j o.y.6.9.w.r.l.M R.Z.d v e.j p d 9.",
"u y d V X.l.y.r.0.e.9.a.a.y.m.l.Z.m.9.j e.m.; @ > +XaX;XS.d f j N.y.r.1.B a.j g B l.L.y.9.9.c c d.d.",
"g a B.B n y.e.z g B C j.V N.b.A.N.y.e.x 9.|   - D {.aX8X@Xq B 5.e.4.y.r.a B r.4.B r.9.M B y.9.r.9.j ",
"f j f c e.Z.q.g 9.a.b.p.Z B.x.m.V.B C N...;   ; L {.uXaX1XwX>.b.x.r.g 0 r.o.c.<.B y.B c.a.r.n D.C d ",
"M j r.M.C e.h.6.c.P.f.a.e.y.z.l.m.2.m.l.8   @ ; P %.>XhX3X>XB.z.m.r.c E.l.6.y.e.e.i.w.r.y.B.F.l.s h.",
"M j y.B.F.n.q.w.a.y.m.y.w.L.V.N.l.W.R.W $ . + ; I #.;XpXiX,XrX8.E.T.w.B e.d 0.l.e.y.j.b.c Z.c.f 0.N.",
"q.4.N.w.C R.B w.j c 9.h.9.j.B.Z z.I.+.D   O & 3 I #.=XyXaX;X4XwXK.C.q.a e.g 0.B y.6.9.0.l.r.r.a v.p.",
"a.Z.9.x a 9.9.g 0.r.w.b B f.y.B Z.v J   X O & 4 I _ |.>XaXpXoXyXR.p.9.9.0.B g.0.Z r.b.a.T.b.c.N C s.",
"C B y.m B 9.j 4.w.B g.l.t.9.0.y.6.W $ . O + * 4 I ) }.:XuXaXtXoXeX;.x.y.B c C V.Z.0.e.r.c I.s.C l.a.",
"j c y.g.q.9.0.u.N.y.0.y.c l.j.>. .:   O O @ - 4 P ! {.=XeXiXaX=X1X-Xq x.B 9.0.a.b.m.z.n y.0.B x y.r.",
"9.0.w.g.d j B B c x B x x 9.q.O.A   O O + @ ; 4 P ! #.|.:XyXiXuX.X8XH.q z 9.y.x y.V z n.n.w.V x 0.a.",
"C 1.r.L.A.C c b.0.9.9.r.w.j V W   X O O + & ; 4 L Q @.}.=XeXuXiX>X[.6XB a 7.y.r.w.C n.r.x.m.9.j j r.",
"e.j z A.M.l.e.B y.q.y.b.B 6...$ . O + + & & ; 3 7 U ) &. X:XtXuXuX=X,XrXr y.h.N.n B.b.h n.a.6.g e.i ",
"y.a.9.9.9.m.B r.e.b.P.z a.X.:   + & & & & * = < 6 P ! @.}.=X:XtXyX6X`.5X@Xq r.x e.b.r.w.M.g.4.d z w.",
"p.n.s.r.D.F.l.v.e.B b.y.v W X & % * * * * * * ; 4 P U ) %.|.=X:XtX6X=X_.6X7.9.j h.c 9.q.6.4.q.k.q.j ",
"1.p v.n.M.P.b.b.9.e.x.i...% & , , > > = * * = ; 4 7 P Q _ &.|.=X:X:X=X] &XwXq x q.f t.x 9.4.M 0.9.g ",
"B t.n.R.y.y.b.l.e.e.X.0.{ $ S S S S , > > = * ; ; 4 7 I ! _ &.|.#X=X#X&.' >Xm c 9.d a j q.6.e.1.g w.",
"a.n 6.e.m.M.X.b.q.c x ..4 A J J H F S 5 > > > ; ; < 4 7 I ! _ %.{.}.}.#.D $XH.q g B e.B 9.y.j r.4.g ",
"j x h 9.A.m.9.h.x.l.c t : ~ ` ( R J F S 5 > > = ; ; 3 4 7 I Q ! @.@.@.) 6 (.OXe 0.j B c 9.x.b.4.C z ",
"c B c l.e.l.p.9.V.P.e.t T (.(./.` ^ J F S 5 > > = ; ; 3 4 6 P U Y Q Q U 4 H OX3.a.u B y.9.m.Q.x.r.B ",
"9.r.l.r.u.h 0.B B.r.c E ).XX.X`./.` ^ J F S 5 > > = ; ; ; 4 4 7 7 P 7 6 - : {.e.9.3.9.q.q.C m.b.g B ",
"9.C c.C s.9.w.i.9.e.q./ %X1X&X.X`./.` ^ J F S 5 < > = ; ; ; ; 1 4 4 4 ; & o #.Z.g.d Z r.h b.r.N b.p.",
"P.C x x z.9.f.b.x r.m `.qX0X4X&X.X`./.` ^ J F S 5 < > = * * = ; ; ; - & # o $.Z.q.9.h.r.e.9.a.9.b.p.",
"a.z x N l.6.B n.n Y.:.%XgXdX0X4X&X.X`./.` ^ J H D 5 < > = * * * * & & + # o $.B.j y.4.e.e.9.a.a.a.v ",
"V r.N.x.e.B 9.Z C x.e $XjXjXdX0X4X&XXX`./.` ( J H F S 2 > = & & & + + X . $ } B V M q.9.e.w.9.e.e.B ",
"c.x.x.9.c e.B.<.v.Y.;.+XlXxXjXdX0X4X&XXX`./.` ( R H F S 2 > * & & + O X   , ..4.y.0.0.g.l.C b.y.B.Z.",
"Q.B.a.n 9.0.n.v 2.W.L. .kXvXxXjXdX0X4X&XXX'.(.' ( R H F S 2 > * & & O +   E C 4.0.j c 0.P.m.9.e.e.9.",
"9.s.j.b.Z.y.p l.P.V U.e rXvXvXxXjXdX0X5X&XXX'.(.' ` ~ J H S 2 > * % $ @ $ | 5.0.9.d 9.r.y.b.c.X.C i.",
"i.Z B.a.9.C x r.n.B 9.4.| zXbXvXxXjXdX0X7X1XoX].`./.` ~ R H F A > * * o E C 4.M w.0.w.C B w.x C P.c.",
"N.u.V y.9.N.x x c y.B v.,.OXcXbXcXxXjXfX0X7X1X%XXX'.(.' ( R J F A 5 $ 6 n w.x j 0.q.d.r.y.e.r.v.r.l.",
"b j 9.y.y.9.l b.B 0.y.0.b.:.@XzXbXvXxXjXgXsXqX2X<XoX].).^.` ~ R F : 6 v j x 9.j j y.j N.e.e.B.l.y.r.",
"y f 0.g B C.c g v y.j.b.B m.e [ hXcXvXcXkXgXsXqX7X1X%X[.].).' T : t v d q.x q.j f f 9.c f e.m.z.x 9.",
"j 0.C e.w.y.B c j <.9.0.c M X.7...;XhXlXlXjXgXdXqX9X2X,X].~.G Y +.C r.j y.x c d 9.B 6.f g 0.C.V d q.",
"d c y.Z.U.T.B.f d 4.9.a.V.p.l.C.a.;.| +X1X7X9X9X2X,X].^.^ 9 l F.!.m.N.e.l.D.l.c 0.9.e.a.j l.P.0.f q.",
"4.j y.N.Z.e.9.<.9.B e.r.c I.L.a.l.z.0.:.e w ..| | l l m 4.j l.r.m.N.N.l.r.b.C 9.g a.U.b.0.B 9.4.d j ",
"4.w.M y.j.B 0.9.i.6.x.n y.9.a.K.C.m.b.e.n 2.5.g s 9.r.B.9.N B.M.c Z b.B.c a w.N.r.9.y.9.y.j 9.B.9.4.",
"w.k.c f 9.q.q.Z u.V v b.Z.y.V i.B.y.C c c u B N I.p c =.9.B.U.g.b.T.e.y.B.C x 0.k.9.h w.y.l c d.g.9."
};
