/* XPM */
static char *_579d3242a524172eeef212535994cb7MuFtaCMZvHNbm73z[] = {
/* columns rows colors chars-per-pixel */
"50 50 240 2 ",
"   c #000000",
".  c #020D08",
"X  c #130A0D",
"o  c #001D01",
"O  c #031608",
"+  c #111D06",
"@  c #181A12",
"#  c #022305",
"$  c #00240D",
"%  c #082613",
"&  c #1C271A",
"*  c #003313",
"=  c #222216",
"-  c #143628",
";  c #262E22",
":  c #2A3929",
">  c #373B2F",
",  c #2D4E00",
"<  c #2D5319",
"1  c #3A5818",
"2  c #3E6600",
"3  c #0F4E29",
"4  c #385926",
"5  c #2D4B35",
"6  c #374434",
"7  c #3D553F",
"8  c #3B6223",
"9  c #445F00",
"0  c #4C6A09",
"q  c #456618",
"w  c #577918",
"e  c #425D2B",
"r  c #434739",
"t  c #504435",
"y  c #455B38",
"u  c #4A6827",
"i  c #556C28",
"p  c #546D2C",
"a  c #4E7328",
"s  c #537425",
"d  c #587526",
"f  c #5B7B26",
"g  c #54732A",
"h  c #5A752C",
"j  c #567A2B",
"k  c #5C7B2C",
"l  c #446137",
"z  c #4D6433",
"x  c #546D34",
"c  c #566C38",
"v  c #567234",
"b  c #5B7533",
"n  c #5D7B32",
"m  c #5E743B",
"M  c #5E7A3A",
"N  c #637F29",
"B  c #637D2D",
"V  c #647537",
"C  c #637D34",
"Z  c #697E35",
"A  c #647D3B",
"S  c #6B7E3A",
"D  c #474E42",
"F  c #485B46",
"G  c #5A5749",
"H  c #555A4B",
"J  c #585848",
"K  c #5E5C54",
"L  c #635E54",
"P  c #4B6248",
"I  c #4E614D",
"U  c #56664A",
"Y  c #5C7446",
"T  c #4E6551",
"R  c #556450",
"E  c #5C6555",
"W  c #5C6C58",
"Q  c #5B705A",
"!  c #63694A",
"~  c #637C41",
"^  c #677846",
"/  c #646654",
"(  c #6B6A56",
")  c #626A5B",
"_  c #656B58",
"`  c #6A6C5B",
"'  c #726E5B",
"]  c #6B7857",
"[  c #64745C",
"{  c #6C725E",
"}  c #72725D",
"|  c #767A5A",
" . c #6A6D63",
".. c #6D7363",
"X. c #6B7767",
"o. c #667B63",
"O. c #6B7C63",
"+. c #737463",
"@. c #737B65",
"#. c #7A7B64",
"$. c #747669",
"%. c #797769",
"&. c #757B6C",
"*. c #7A7C6A",
"=. c #797E71",
"-. c #8A7A48",
";. c #817D6E",
":. c #837F71",
">. c #65851F",
",. c #5E8129",
"<. c #5C8132",
"1. c #5F863A",
"2. c #63822D",
"3. c #68862A",
"4. c #648334",
"5. c #698434",
"6. c #668934",
"7. c #6B8A35",
"8. c #65833A",
"9. c #6B843B",
"0. c #668A3A",
"q. c #6B8A3B",
"w. c #728132",
"e. c #728D36",
"r. c #72833C",
"t. c #728C3C",
"y. c #7A8C3D",
"u. c #6E9034",
"i. c #6E913C",
"p. c #749234",
"a. c #75933B",
"s. c #7B933D",
"d. c #7B983A",
"f. c #6C8542",
"g. c #6A8746",
"h. c #6E8942",
"j. c #718643",
"k. c #738B43",
"l. c #7C8C45",
"z. c #758D49",
"x. c #78894A",
"c. c #759143",
"v. c #7A9443",
"b. c #7D9945",
"n. c #759249",
"m. c #7B924B",
"M. c #7E984C",
"N. c #788755",
"B. c #7B9451",
"V. c #7F9C51",
"C. c #6C8465",
"Z. c #6F8069",
"A. c #778265",
"S. c #7C8265",
"D. c #74826C",
"F. c #7C836B",
"G. c #7C896B",
"H. c #7C8572",
"J. c #7C8B73",
"K. c #788876",
"L. c #7F917A",
"P. c #81953F",
"I. c #879647",
"U. c #83954A",
"Y. c #819B4B",
"T. c #829A52",
"R. c #879956",
"E. c #949E50",
"W. c #95A353",
"Q. c #818366",
"!. c #82856C",
"~. c #89866B",
"^. c #84896C",
"/. c #8A8A6D",
"(. c #849167",
"). c #838572",
"_. c #898775",
"`. c #848A74",
"'. c #8B8C75",
"]. c #878679",
"[. c #838D7A",
"{. c #8C8D7A",
"}. c #918E77",
"|. c #899176",
" X c #85927B",
".X c #8B937C",
"XX c #929375",
"oX c #93947D",
"OX c #94997E",
"+X c #9A9B7B",
"@X c #9FAB69",
"#X c #869380",
"$X c #8D9984",
"%X c #949683",
"&X c #959B84",
"*X c #979986",
"=X c #9A9D85",
"-X c #9A9D89",
";X c #9E9F94",
":X c #A29D88",
">X c #9CA186",
",X c #97A48B",
"<X c #9DA38B",
"1X c #9CA393",
"2X c #9EA998",
"3X c #A2A386",
"4X c #A2A48B",
"5X c #A8A68C",
"6X c #A6A98D",
"7X c #AAAB8F",
"8X c #A4A591",
"9X c #A5AA94",
"0X c #A7A896",
"qX c #ABAC93",
"wX c #ABAB99",
"eX c #B4AB94",
"rX c #B1AD99",
"tX c #AEB196",
"yX c #ABB19D",
"uX c #B2B295",
"iX c #B3B39B",
"pX c #BAB69B",
"aX c #B2BA9E",
"sX c #BBB99E",
"dX c #A0B0A4",
"fX c #B6B8A4",
"gX c #BCBCA2",
"hX c #BBBCA9",
"jX c #C1BEA3",
"kX c #C1BFA9",
"lX c #BDC1AA",
"zX c #C3C1A6",
"xX c #C4C4AB",
"cX c #C8C7AD",
"vX c #D0CCAD",
"bX c #C6C7B1",
"nX c #CCCAB4",
"mX c #D2CFB4",
"MX c #D0CEB8",
"NX c #D8D7BD",
/* pixels */
"5.b B 4.C 4.c.^ k 7.l.f.f.z.r.w.8.4.t.Z x C 0.9.r.,.g Z t.C l.l.m.A n.z.j.C C b 8.6.9.s.u.d n n C C ",
"2.2.4.d 5.a.v.9.5.3.f.q.7.n b k 4.q.q.b 8.n i Z 5.b <.9.d.A 7.I.U.x n b g <.B C C 4.r.I.3.B Z n 5.N ",
"8.9.k.B M.R.k.9.9.9.h 4.d h h 6.5.8.M 8.Z p b 9.n 9.4.h T.M.9.j 9.R.b 4.b 4.Z C k n q.7.B h 7.A b q.",
"8.l.9.t.B.U.z.q.8.m f.C B 4.8.f 4.z.B.9.q.2.w w >.0 w 3.q.k q.f.B.m.h q.A k.9.n 4.7.M.b b f.T.z.n.q.",
"v.q.f.M.k.4.q.9.~ g.m.A h h C V.B.E.g.~ ^ U [ O.Z.O.O.A.] Y u 9.9.9.A A q.m.9.Z k.j.b.k q.q.T.V.0.M ",
"t.9.8.p.C b 7.b 9.9.d 4.q.8.i.Z c | o.D.K. X*X-X.X-X<X-X<X4X4XXX! q 8.j.0.A n.q.j.f.M.b.q.q.c.q.s 7.",
"B q.9.e.k.i.8.t.v.8.n 8.v.p.q W J.K.%X8XqXrXwX9X..<X8X4X8X8X4X9XiX4X^ 3.t.f.8.q.q.v.I.b.v.k.v.B g 7.",
"4.a.2.b q.b f.Y.8.t.Z A 2 U #X.X*XeXeX5X:X9XwXrXiXiXqX9X-X=X4X<X-X<XuX+Xi a.Y.T.5.s.A k.I.a.5.6.f g ",
"j.e.3.h 4.4.0.h n g 5.9 D.,X XrXeX:XwXfXnXiX+.).mXqX` ).gXgX5X-X=X4XoX4X7XN.s.m.k q.9.t.E.v.7.7.h 4.",
"4.a.2.N k.c.6.h k e.1 #X*X*XpX:X9XhX{.H zX=X  H MXH.  6 cX'.H oX8X{.=X*X.XqXN.k h.g n 9.n n 7.B n 4.",
"Z 9.A d C 4.a.4.a 1 ..[.wXqX*XfXmX4X    9XsX  L nX{.  %XcX:   E cX4XoXoX<X{.{.] d 8.5.h g C n 9.B ,.",
"b <.Z Z p.8.5.6., [.[.[.oX1XyX: ` mX!.  _.zXo K MX[.  wXiX  . hX5X  ..oX).$._.iX] f b p 7.n t.t.B 5.",
"h n C C t.c.v.9 H. XdX1XyXbX  .   5XsX  ).xXo L MX].  iXqX  ).xXr .   _.yX'.4X{.tXm 6.4.4.9.v.2.s 6.",
"g B h 9.C m.C [ $X$X2X1XlXgXfX>   ).jX  :.xX# L nXH.  iXqX  4X9X    $.jX>X*X.X.XOX3Xd 4.b 8.h a f 4.",
"a u f Z ~ f.z $X[.yX$X9X  D xX4X  *.pX  :.zX# L nXH.  iXqX  8X5X  K cXQ.  E .X.X!.6X(.N 4.4.n n u.u.",
"h g v.C A s L.[.yX#XhX+ .   oXgX  %.sX  ;.jXo L xX&.  rX6X  5X8X  *XpX  X   <XoX X.X<Xv C 9.4.9.4.n ",
"g k g n 8.U #X%X-XqXvXsXH   '.pX  %.sX  ;.jXo L bXD.  wX<X  5X5X  *X7X    {.kX%X[.'.<XG.5.9.M N.A f ",
"B k 9.m.p O.[.9X*X8X6 jX4X  '.uX  $.iX  ;.gXo L bXH.  qX4X  4X4X  *XqX  +.xX/ I [..X'.*Xi U.B.f.d a.",
"B k 9.M.c K.$X=X9X/   }.7X  _.uX  $.iX  ;.jX$ / gX@.  qX<X  >X=X  %X7X  {.qX  ; $X'.).*XY M.j.g 5.c.",
"6.2.c.3.U L.*X%X<X#   '.4X  '.uX  $.uX  ;.gX  G cX@.  9X*X  >X=X  oX5X  _.4XO + >X.XF..XO.C 9.g k.r.",
"t.m.4.0 X. X%X*X_..   '.3X  _.7X  $.qX  ;.sX*.hXlX<X{.kX*X  =X*X  oX3X  _.<XO   >XoXF.'.G.p k.V A y.",
"A C q.0 H..X%X:X[ *   {.6X  ).4X  $.7X  %.zXgXoX@.@.9XgXOX  >X=X  oX>X  ).>X%   <X=XG.!.F.l.v.A g.t.",
"h b q.f F..X%X4X3     {.6X  *.4X  +.qX  *.iX/ ;XwX8XE OX=X  =X<X  }.4X  *.4X    >X7XD.F.^.z 4.v q.9.",
"4.5.7.h F.oXoX3X).).*.iX7X&.9X7X&.wXuX=.fX'.1X X  R %X`.6X+.fX>X` iX*XH rX-X` ` uXuX} *./.z C b 5.t.",
"A <.9.V r {.{.qXjXxXcXgXuXcXgX9XzXfX4XfXfX*.9X  X   *X).9XqX9XOXtX9X X<X9X X*X4X<XG.#.} D y 4.k k 9.",
"9.k h ^ ].oX{.9XOXoX=X7XqX+X3X7X=X=X=X`.,XH.=X{    .9X$.9XD.H..X`.[. XJ.D.L.Z.Q o.o.D.{ #.Y 3.d 8.i ",
"h.k.5.c `.'..X=X; &   `.3X  %.=X  ` 4X= ..*X_ %X1X9XE 8X$XO { .X  /  X% D J.6   @ @.F.+.F.u 2.f p 7.",
"j.x.v.M ).'.{.oX: @   !.XX  ).*X  +.=X  ` 9X=X_.=.X.8X9XZ.  !.'.  )..X  ' .XO   H =X+.+.!.4 7.a.7.k ",
"<.a x.Z F.'._.}.F $   F.XX  F.*X  +.=X  { <X..{.<X<XX.@.H.  /.`.  )..X  %..XO   .X=X+.*.@.q 4.8.4.d ",
"C 0.m.l.S.!.!.{.[ *   *.'.  *.oX  ` oX  } *X  ; ,XR   *.H.  '.`.  _..X  #..Xo   tX{...#.[ a 9.k h 7.",
"t.M 6.n ( !.F.'.G.3   #.~.  #..X  ` oX  +.*X  G ,XR   oXJ.  /.F.  ).'.  +.|.  F gX@.{ #.U C n 9.2.h ",
"h b j 5.~ /.#.!.|.C.3 #./.  #.|.  ` '.  +.*X  G <XR   oXH.  ^.S.  ).`.  { .X  $XtX` } S.l h.z.2.A v ",
"n C n f.x Q.#.#.*.OXaX5X!   +./.  / /.  } OX  G <XT   oXD.  ^.A.  !.F.  r J.[ xX).+.} [ p n.R.h.9.C ",
"4.9.g.9.3.! !.` } XXuX} &   } /.  / /.  ` .X  G >XT   {.C.  ^.@.  F.D.  O $ o. X` +.*.Y 5.A z.k.d C ",
"4.A j.A y.p S.} / +.#.      }.#.  _ `.  ` `.  G *XF   ~.C.  S.{   +.^.#   X.*XI ` } D.8 k h.9.V k.r.",
"I.A b b g.4.Y S.@.F.#.XXD.*X=X6   / /.  ` ^.  G *XP   /.C.  S.o.  6 F.` J.NX%X&.) ).l Z 9.4.t.4.k.r.",
"t.v b V f.6.u ] N.+.} ~.pXoX: @   } ).  ( ^.  G OXF   {.o.  #.@.      F >X|...&.@.Q q 9.9.4.t.t.t.b ",
"Z 9.c.h.8.C 5.v A.} { ( _ { :   O :X{   ( !.  J OXI   '.o.  H J.: 6 ,X9XJ E H...D.< 7.2.8.7.4.8.8.C ",
"j.h.h.4.n 8.v.2.z @.} ` !.] XX2XuXoX-   ' ^.  J oXF   ~.O.    I W iXNXoX+.) / J.4 9.5.p.f.A k.9.v.m.",
"E.v.t.M 8.5.l.b <.c G.Q.@.!.( OX3XU O - oXA.  t ~.F   ! @.$ [ <XD.|.{ X.F.( ` 5 k 4.n 9.U.z.4.8.8.4.",
"4.y.s.k.m.q.a f.U.C l @.| ` ).+.U { OXxXqX7 o { ~.6 5  XS.A.cXfXQ Q H...#.@.4 B 6.f 4.9.q.k.j.~ A t.",
"e.S v.t.4.A b 9.l.A 5.u _ S.} @.F.+.X.'.o.[ <XjX@.R yXzX@.Q @.) H.D. .`.[ < k 2.q.9.7.A C 7.b A U.j.",
"c.w.Z q.4.c.b b n q.C k.k F @.#.` ` ` { +...X.{ F ) +.` ..&.&.$...*.D.y 1 q.n k 5.6.u.9.q.8.9.k.9.f.",
"m h 4.9.q.4.x k.A 5.9.9.t.y.c P { #.+.` .... .X.G %.$.&.+...$.*.X.P 8 g k b 4.n k q.h c.8.8.v.f.q.9.",
"u g 5.k C n.n h b 9.a.k.A k.S u e y U _ { @.+.{ *.*...+.$...W y u C n k 6.b 6.n g g 4.n g 8.z.g.b 4.",
"k 5.A 9.7.q.C n k ,.4.q.n C Z k.k.8.m c z y y U U 7 F y e 4 g ^ R.8.8.k q.b n f 4.C 2.g d 5.n.Z f 6.",
"f n q.m.Y.T.v.g k 2.4.t.v.f.f.c.q.k.g.M.q.m N.u r.R.N b b j q.T.@Xg.v.8.f.z.f.n 5.4.0.t.k f.U.5.g 5.",
"2.k q.c.m.9.4.,.4.C 8.9.n I.I.t.f.f.C y.S 1.k.Z C W.9.9.4.h A 9.z.c.k.f.9.k.A 4.d t.Y.k.9.C 4.2.f k ",
"2.7.B q.s.C 5.4.e.3.h.M 9.4.t.P.m.z.z.4.b k 2.g a s 8.l.C A v.l.n r.k.v.n g 7.c.9.4.q.4.q.k 4.v.4.2.",
"q.a.n g 4.5.6.S w.5.b k.m.q.Z t.v.q.A n n q C V I.s ,.-.4.v.Y.p.k.T.8.q.v.A b 5.d.4.j 7.q.x n u.p.4."
};
