/* XPM */
static char *_94af18d7e4642d6990a93c6e26b2892JeanafHoNTTU1Bdk[] = {
/* columns rows colors chars-per-pixel */
"50 50 237 2 ",
"   c #010001",
".  c #060609",
"X  c #010215",
"o  c #0A0A14",
"O  c #04041A",
"+  c #060A1B",
"@  c #090C1B",
"#  c #0D1219",
"$  c #000022",
"%  c #080D23",
"&  c #00002D",
"*  c #0C1324",
"=  c #051128",
"-  c #0B162B",
";  c #0E192C",
":  c #141A26",
">  c #121A2C",
",  c #020235",
"<  c #001A37",
"1  c #0D1B33",
"2  c #0E1E3A",
"3  c #131E33",
"4  c #1C282D",
"5  c #0A213C",
"6  c #1A2334",
"7  c #1B2537",
"8  c #11213C",
"9  c #212D3E",
"0  c #374A1B",
"q  c #3C513C",
"w  c #465D19",
"e  c #4D6A00",
"r  c #597602",
"t  c #5E7D17",
"y  c #617B00",
"u  c #657900",
"i  c #4D6B26",
"p  c #556E2B",
"a  c #4E7327",
"s  c #537225",
"d  c #5B7B24",
"f  c #54742B",
"g  c #5A752C",
"h  c #577829",
"j  c #5B7B2C",
"k  c #4D6532",
"l  c #566F33",
"z  c #557332",
"x  c #5B7633",
"c  c #537836",
"v  c #5D7B33",
"b  c #5D763A",
"n  c #5D7B39",
"m  c #657F29",
"M  c #627D2D",
"N  c #647637",
"B  c #627D34",
"V  c #697E34",
"C  c #647D3B",
"Z  c #6B7E3C",
"A  c #00194F",
"S  c #0A2345",
"D  c #122542",
"F  c #172B45",
"G  c #142B4B",
"H  c #152E54",
"J  c #173153",
"K  c #1A3456",
"L  c #1A375C",
"P  c #243242",
"I  c #283748",
"U  c #2B3A4C",
"Y  c #313B4F",
"T  c #283B54",
"R  c #1D3D63",
"E  c #0C3B70",
"W  c #203D62",
"Q  c #1F4050",
"!  c #344B46",
"~  c #384E46",
"^  c #324254",
"/  c #36485B",
"(  c #1D4370",
")  c #23446B",
"_  c #3A4D63",
"`  c #3D5167",
"'  c #254972",
"]  c #244A76",
"[  c #26527F",
"{  c #2C537D",
"}  c #385876",
"|  c #445B45",
" . c #4D5D4B",
".. c #5B7547",
"X. c #516E50",
"o. c #647E41",
"O. c #6A7B45",
"+. c #6C7D51",
"@. c #41566C",
"#. c #465D74",
"$. c #486177",
"%. c #4C657C",
"&. c #537671",
"*. c #647C6A",
"=. c #8B7A42",
"-. c #5E801F",
";. c #708A09",
":. c #5E812A",
">. c #5E8132",
",. c #5A8136",
"<. c #63832C",
"1. c #68842A",
"2. c #65892D",
"3. c #6C8A2B",
"4. c #73882C",
"5. c #749022",
"6. c #648334",
"7. c #6A8434",
"8. c #678935",
"9. c #6B8A35",
"0. c #65833A",
"q. c #6B843C",
"w. c #678A3B",
"e. c #6C8A3B",
"r. c #718333",
"t. c #728D35",
"y. c #73843C",
"u. c #728C3D",
"i. c #7A8E3E",
"p. c #6E9034",
"a. c #6E913B",
"s. c #749234",
"d. c #74923C",
"f. c #7B9638",
"g. c #7A943C",
"h. c #678342",
"j. c #6B8443",
"k. c #6E8A43",
"l. c #6C854A",
"z. c #6B894B",
"x. c #718642",
"c. c #7B8544",
"v. c #738C43",
"b. c #7A8D45",
"n. c #748C49",
"m. c #7B8D4A",
"M. c #759143",
"N. c #7A9443",
"B. c #7D9944",
"V. c #76924A",
"C. c #7C934A",
"Z. c #7E994C",
"A. c #6A8755",
"S. c #788D52",
"D. c #7D9553",
"F. c #74926D",
"G. c #6A8875",
"H. c #8A9029",
"J. c #839444",
"K. c #829B44",
"L. c #839549",
"P. c #8B974A",
"I. c #8A914C",
"U. c #829A4C",
"Y. c #829A52",
"T. c #8A9C53",
"R. c #849459",
"E. c #929A58",
"W. c #8DA155",
"Q. c #829C60",
"!. c #2B5686",
"~. c #335C89",
"^. c #245D9A",
"/. c #38628D",
"(. c #2F6499",
"). c #356495",
"_. c #3C6B9B",
"`. c #3570A6",
"'. c #3B7BB4",
"]. c #536D85",
"[. c #546F88",
"{. c #4A7287",
"}. c #55728B",
"|. c #416E9E",
" X c #5B7A95",
".X c #607F9B",
"XX c #4778A9",
"oX c #477EB2",
"OX c #64839D",
"+X c #628D9E",
"@X c #6E9390",
"#X c #4983A5",
"$X c #4683B7",
"%X c #5287B9",
"&X c #688BA8",
"*X c #6A92AA",
"=X c #7192AD",
"-X c #6493B7",
";X c #779BB7",
":X c #7BAFAF",
">X c #7BA4BA",
",X c #4987C2",
"<X c #5C92C3",
"1X c #5592C8",
"2X c #5795CC",
"3X c #6499C9",
"4X c #639DD1",
"5X c #5EA0D4",
"6X c #77AECB",
"7X c #6BA6D8",
"8X c #74AAD6",
"9X c #6DB4ED",
"0X c #76B4E5",
"qX c #8FAB95",
"wX c #81A7BA",
"eX c #8CB4B7",
"rX c #84AAC7",
"tX c #8AB0CC",
"yX c #8AB4D5",
"uX c #93BAD7",
"iX c #83BDEB",
"pX c #8CCAEF",
"aX c #9BC4E3",
"sX c #88CAF8",
"dX c #99D4F9",
"fX c #97D8FB",
"gX c #A1CAE7",
"hX c #ADD8EC",
"jX c #99E1FF",
"kX c #ACE6FD",
"lX c #B4EAFC",
"zX c #BFF4FD",
"xX c #C2E9F5",
"cX c #CBF8FD",
"vX c #D3FDFD",
"bX c #EBFEFA",
"nX c #F7FFFE",
/* pixels */
"7.x M 6.B 6.M.O.j 9.b.j.j.n.y.r.0.6.u.V l B 0.7.y.<.g V u.B b.m.C.C V.b.x.B B x 0.8.e.g.p.h v v B B ",
"<.<.6.h 7.d.N.q.7.1.j.e.9.v x j 6.e.e.x 0.v s V V x ,.7.g.C 9.I.L.l v x s >.M B B 6.y.J.2.M V v 7.m ",
"0.e.v.M C.T.v.7.q.q.g 6.h g j 8.7.0.n 0.V i h 7.k C B h Y.Z.0.h q.R.x 6.x 6.V B j v e.9.M g 9.C N w.",
"0.b.q.u.S.L.n.e.0.b j.B M 6.0.j 6.z.V.V w.6.g 2.o.x <.u.v.v 0.0.D.C.x e.C v.0.v 7.9.Z.x x j.Y.b.V.e.",
"N.e.j.Z.v.6.e.q.o.j.C.C g h 6.Z.n.E.D.V.q.6.t.1.X.b d.s.<.6.C n.q.q.C 0.e.C.q.V v.x.B.j e.e.Y.Z.0.n ",
"u.q.0.s.B x 9.x q.q.h 8.e.B w.q.n.I.R.6.7.M 6.<.*.+.I.p.6.j n.b.x x q.q.w.B V.e.x.j.Z.B.e.e.M.e.s 9.",
"M e.7.t.v.a.0.u.M.0.v q.g.f.6.j v.B 7.g 9.e.7.r &.F.4.2.6.K.x.x q.x 0.N.9.j.0.e.e.N.P.B.N.v.N.M f 9.",
"6.f.6.x e.x h.U.0.v.V b s e.7.7.u.g 6.j j V 9.r %.G.r 8.q.v.6.n x C q.v.q.C.B.Y.6.g.C v.K.g.7.8.d f ",
"x.t.2.j 6.6.w.g v h <.1.v 0.d v.O.g j 2.>.B 9.w ].@Xr k.7.0.K.x B v.v.v v.C.L.C.j e.q.u.W.N.9.9.j 6.",
"6.d.<.m v.M.8.g j t.e.y.q.B B b.C v 7.e.U.e.e.w %.wX7.0.0.h.6.6.0.g.V C.v.n.n.k.e.s v 7.v v 9.M v 6.",
"V q.C h B 6.g.M i 6.x 0.C j.e.u.b.q.v.h.M.u.6.0 ` tX+.1.0.n 0.j.v.y.Z u.M.U.B.7.B v q.g s B v 7.M :.",
"x >.V V s.0.7.<.<.x n b 6.y.e.C k.e.e.k.T.K.l.4 T yX@X;.>.i i B g.V B B q.j u.7.0.M x p 9.v u.t.M 8.",
"j v V B u.M.v.j j e.6.v C C.q.x.7.b.e.N.g.N.l.X D uX>XM 8.6.g j 7.a 6.j e.e.M.i.6.y.8.6.6.q.N.<.s 8.",
"f M g q.B b.e.v.M.v g o.v.0.q.U.K.T.v g.C k.q X < rXyXF.3.n s 1.d O.e.2.6.9.q.h.M T.C.h x C j a h 6.",
"i i h V o.j.e.q.7.0.6.u.u.e.n.j.C.b.6.j 0.l.$ : 5 ;XaX*Xq.B s j N.e.q.>.B u.j g B l.K.e.6.6.v v p.p.",
"g s N.B n e.0.z g B C g.V M.v.Z.M.e.0.x 6.|   > P &XgX3X@Xr B 1.0.<.e.q.s B q.<.B q.6.M B e.6.q.6.j ",
"f j f v 0.C.8.g 6.u.v.y.Z N.k.n.C.B C M...% . > I }.aXyX-XQ.9.u.k.q.h w q.O.x.>.B e.B x.u.q.n S.C d ",
"m j q.m.C 0.d.2.x.L.a.u.0.e.j.j.n.,.z.j.9   # > U {.tXgX<XeX;.A.n.q.v R.j.1.e.0.0.t.9.q.e.N.D.h.s d.",
"M j e.M.D.b.8.9.u.e.b.e.e.J.B.v.j.E.T.~ O o * 6 U %.;XgXrX<XqXf.R.Y.9.B 0.d 7.j.0.e.g.v.v C.x.f 7.M.",
"8.<.M.9.C T.B 9.j ,.6.d.6.g.N.Z j.I.+.F   + * 6 Y $.*XuXaX%X6XY.U.C.8.s 0.z 7.B e.1.6.7.j.q.q.s v.y.",
"u.C.6.x s 6.6.g 7.q.9.b B a.e.B C.z Q X o + * 7 U #.OXrXaXtX,XeXH.n.6.6.7.B s.7.Z e.v.u.Y.v.x.C C i.",
"C B w.m B 6.j <.9.B s.j.w.6.7.e.1. ., . + @ > 7 U @. X;XuXaX-X3XqXy k.e.B v C B.C.7.0.q.v P.i.C h.u.",
"j v e.s.8.6.7.r.M.e.7.e.v j.N.t ..D   o + % > 7 I ` [.=XtXaXuXXX7XG.r w.B 6.7.u.v.n.j.n e.7.B x e.q.",
"6.7.9.s.h j B B v x B x x 0.9.h.P   o o @ * > 7 I / %.OX;XuXaXrX'.6XV j g 6.e.x e.V z b.b.9.V x 7.u.",
"C ,.q.K.Z.C v v.7.6.6.q.9.j <.X.$ . O + @ * > 7 P / #. X=XrXuXuX&X,XwXr c 3.e.q.e.C v.q.k.n.6.j j q.",
"0.j p Z.m.0.0.B e.8.e.v.B <.l.&   + + @ @ * > 6 P ^ @.[.&X>XtXuXtXXX4XqXu q.d.M.n N.v.x m.u.2.h 7.i ",
"e.v.6.6.6.n.B q.0.v.L.z u.q.S   @ + @ % * * > 6 9 U _ %. X=XwXtXyX;X`.yXS.d 7.z 0.v.q.9.c.s.<.d p 9.",
"y.b.i.q.S.D.j.c.0.B v.e.v | X # % * * * * * > 3 7 I / @.].OX=XrXtXrX X'.>X;.0.j d.v 6.8.2.<.8.f.9.j ",
">.a c.b.m.L.v.v.6.6.k.t...6 X = - - - - - * ; > 7 P U / #.}.OX=X>X>X=X~.3XF.r x 8.f w.x 6.<.M 7.6.h ",
"B w.b.T.u.e.v.h.0.0.o.7.| X 1 2 2 2 1 ; - - ; > 6 7 I ^ _ $.}.OX=X=X*X].(.>Xu n 6.h s j 8.1.0.>.g 9.",
"v.n 2.0.b.m.o.v.9.v x ..6 = G G D D 2 2 1 - ; > > 7 9 I ^ ` $.[. XOX.X}.T -XG.e g B 0.B 6.e.v q.<.g ",
"j x h 6.Z.n.6.d.k.j.v | & G L L J G D 8 2 1 1 > > 3 7 9 I ^ _ #.%.].].%.U /.+Xu 7.j B v 6.k.n.<.C z ",
"v B v j.0.j.y.6.B.J.C ~ A ) ' ) R K G D 8 2 1 ; > > 6 7 9 I Y / ` @.@._ U H +X9.t.i B e.6.v.W.k.q.B ",
"6.q.j.q.r.h 7.B b.q.n I ( ~.~.{ ' W K G D 8 2 1 ; > > 3 7 7 P I U ^ ^ U P & }.A.1.1.0.8.8.C n.v.g B ",
"6.C x.C i.6.e.t.6.w.C H _.XX_.~.{ ' W K G D 8 2 1 ; > > > 6 7 9 9 P 9 7 7   } F.5.h O.q.h v.q.N v.y.",
"L.C x x j.6.a.v.x q.l !.1X%XoX_.~.{ ' W K G D 8 3 1 ; ; > > > 6 6 6 6 > >   ) F.3.v d.q.0.6.u.6.v.y.",
"u.z x N j.1.B b.n I.Z '.0X7X<XoX_./.{ ' R K G D 8 3 1 ; - - ; > > > > * *   T A.-.e.<.0.0.0.u.u.u.x ",
"V q.M.k.0.B 6.Z C u.z 5XsXiX7X<XoX|.~.{ ' W K G F 8 3 1 ; - * * * * * @ @   U ..M B 8.6.0.9.6.0.7.B ",
"x.k.k.6.v 0.N.>.l.R.d 0XkXdXiX7X<XoX|./.{ ' W L J F 8 2 1 - - * * * @ o o   ^ h.8.7.7.s.j.C v.e.N.C.",
"P.N.u.n 0.7.b.x ,.W.4.6XcXlXdXiX7X<XoX|./.!.' ) L J G D 2 1 - * * @ + o o O ~ 6.6.j v 7.L.n.6.0.0.6.",
"6.i.g.v.C.e.a l.L.h.;.:XvXvXlXdXiX7X<X%XXX/.!.' ) L J G D 5 1 - * % + + . , ..3.6.h 6.q.e.v.x.o.C t.",
"t.Z N.u.6.C x j.m.C 1.X.xXbXcXlXdXiX8X3X%XXX/.~.{ ) R L H D 5 1 - = + @ X I 0.m e.7.9.C B 9.x C L.x.",
"M.r.V e.6.M.x x v e.C u eXnXbXcXkXdXiX8X3X%XXX_.~.{ ' ) L H G S 1 - = # & ..M g 7.8.p.q.e.0.q.v.q.j.",
"b j 6.e.e.6.l v.C 7.e.e.n hXnXbXcXkXdXpX0X4X%XoX_.).!.] ) R J G S 2 ; $ ! x 6.v j e.j M.0.0.N.j.e.q.",
"i f 7.g B V.v g x e.g.v.m &.xXnXbXcXlXfXsX0X7X1X$XXX).~.[ ) R L H 8 & ! 0.j 8.v g f 6.v f 0.b.z.x 6.",
"j 7.C 0.9.e.B v j :.6.7.n u &.hXbXbXvXlXjXsX0X7X2X,XoX`.(.!.[ ) S , ! 0.9.z v h 6.B 2.s g 7.V.V h 8.",
"h v e.C.U.Y.N.f h <.6.u.B.k.4.c 6XxXvXvXzXkXfXiX9X7X2X,X'.(.] A 7 +.V.6.j.S.j.v 7.6.0.u.j j.L.7.f 8.",
"<.d e.M.C.0.6.:.6.B 0.q.v P.U.f.y &.6XpXjXjXfXsX9X9X2X'.^.E Y  .l.V.M.j.q.v.C 6.g u.U.v.7.B 6.<.d j ",
"<.9.M e.g.B 7.6.t.2.k.b e.6.u.J.D.s.u  .{.#X$X$X`.).[ _ q k v.m.v Z v.N.v s 9.M.q.6.e.6.e.d 6.N.6.<.",
"e.f.v f 6.8.8.Z r.V x v.C.e.V t.N.e.h.1.y e r u H.e t =.7.N.U.t.v.Y.0.e.N.C x 7.f.6.h 9.e.l v p.s.6."
};
