/* XPM */
static char *d4e69a5e2b454053b56ed1ac81480f13HfWC4nOnoYgPbXgB[] = {
/* columns rows colors chars-per-pixel */
"50 50 241 2 ",
"   c #000000",
".  c #0B0905",
"X  c #00000C",
"o  c #020315",
"O  c #080717",
"+  c #0A0A15",
"@  c #00001B",
"#  c #06091A",
"$  c #0A0D1C",
"%  c #0E1119",
"&  c #111313",
"*  c #000427",
"=  c #060E22",
"-  c #00012A",
";  c #0C1324",
":  c #0B152A",
">  c #0E192D",
",  c #131A26",
"<  c #121A2C",
"1  c #000238",
"2  c #001934",
"3  c #0D1B33",
"4  c #0D1E3A",
"5  c #141E31",
"6  c #101F3A",
"7  c #1D1E3F",
"8  c #0F223F",
"9  c #192334",
"0  c #1A2434",
"q  c #12233C",
"w  c #1E2A3A",
"e  c #222E3E",
"r  c #2A3334",
"t  c #374632",
"y  c #4A6900",
"u  c #597703",
"i  c #4D691B",
"p  c #637B07",
"a  c #445931",
"s  c #4C6A27",
"d  c #536C27",
"f  c #4E7329",
"g  c #547426",
"h  c #587525",
"j  c #5C7C24",
"k  c #54742B",
"l  c #5A752C",
"z  c #567A2B",
"x  c #5B7B2D",
"c  c #456733",
"v  c #566C35",
"b  c #557433",
"n  c #557535",
"m  c #5B7633",
"M  c #5D7B33",
"N  c #5D763A",
"B  c #5D7B3A",
"V  c #637E28",
"C  c #627D2D",
"Z  c #76792E",
"A  c #627D34",
"S  c #697E34",
"D  c #647538",
"F  c #647D3B",
"G  c #6A7D3B",
"H  c #001846",
"J  c #0F2647",
"K  c #132542",
"L  c #132A45",
"P  c #152947",
"I  c #142B4B",
"U  c #092F53",
"Y  c #172E52",
"T  c #193254",
"R  c #183458",
"E  c #1D3A5E",
"W  c #253243",
"Q  c #243449",
"!  c #293649",
"~  c #2C3B4D",
"^  c #313B4B",
"/  c #1C3C63",
"(  c #203F65",
")  c #364947",
"_  c #2B4357",
"`  c #324356",
"'  c #35475B",
"]  c #384B5F",
"[  c #164270",
"{  c #1C4678",
"}  c #204166",
"|  c #23446C",
" . c #3B4E63",
".. c #3C5269",
"X. c #264B75",
"o. c #2B517B",
"O. c #475A45",
"+. c #465D53",
"@. c #5C7546",
"#. c #506750",
"$. c #647D42",
"%. c #6A7E46",
"&. c #727D48",
"*. c #657854",
"=. c #42576D",
"-. c #455C73",
";. c #51676D",
":. c #4A6276",
">. c #4B647C",
",. c #677B6E",
"<. c #8A7A48",
"1. c #668300",
"2. c #708811",
"3. c #5E8126",
"4. c #5E812C",
"5. c #5E8132",
"6. c #5B8337",
"7. c #63832D",
"8. c #68872C",
"9. c #728F28",
"0. c #648334",
"q. c #6A8435",
"w. c #668934",
"e. c #6B8A35",
"r. c #65833B",
"t. c #6B843C",
"y. c #67893A",
"u. c #6C8A3B",
"i. c #718333",
"p. c #728C36",
"a. c #73843C",
"s. c #728C3D",
"d. c #7A8D3C",
"f. c #6E9034",
"g. c #6E903B",
"h. c #739234",
"j. c #74923C",
"k. c #79933D",
"l. c #7A993B",
"z. c #668242",
"x. c #6C8443",
"c. c #688547",
"v. c #6D8A42",
"b. c #6E8B4B",
"n. c #728643",
"m. c #738C43",
"M. c #7A8D45",
"N. c #768548",
"B. c #748C4A",
"V. c #7B8E4B",
"C. c #6C9040",
"Z. c #749243",
"A. c #7B9343",
"S. c #7D9844",
"D. c #76924A",
"F. c #7B934B",
"G. c #7D994C",
"H. c #678457",
"J. c #768A55",
"K. c #7B8D53",
"L. c #7C9655",
"P. c #588270",
"I. c #688567",
"U. c #778E66",
"Y. c #84923D",
"T. c #848C49",
"R. c #839544",
"E. c #829A45",
"W. c #83954A",
"Q. c #829B4B",
"!. c #8C984A",
"~. c #949F4B",
"^. c #839A52",
"/. c #889955",
"(. c #919B56",
"). c #92A355",
"_. c #949F61",
"`. c #8DA577",
"'. c #154E86",
"]. c #2B5786",
"[. c #315A87",
"{. c #335D8A",
"}. c #326390",
"|. c #376696",
" X c #3D6A99",
".X c #3771AA",
"XX c #3A72A9",
"oX c #4D6F8B",
"OX c #57738B",
"+X c #5C7994",
"@X c #607E98",
"#X c #4579AA",
"$X c #4A7BAB",
"%X c #497BAC",
"&X c #5D8E96",
"*X c #6D9194",
"=X c #4783BA",
"-X c #568BBC",
";X c #5390B0",
":X c #6888A4",
">X c #6995AA",
",X c #7397AA",
"<X c #6996B5",
"1X c #7699B5",
"2X c #7CA3A0",
"3X c #7BA3BC",
"4X c #4989C5",
"5X c #578EC4",
"6X c #5994C8",
"7X c #589AD4",
"8X c #679AC6",
"9X c #659ED2",
"0X c #6AA1CF",
"qX c #7AA6C8",
"wX c #6AA5D8",
"eX c #77ABD7",
"rX c #7BB7E7",
"tX c #70B7F1",
"yX c #87A9AD",
"uX c #84AAC6",
"iX c #82B5C9",
"pX c #8CB2CF",
"aX c #8BB5D6",
"sX c #95BBD9",
"dX c #82BCE9",
"fX c #9CC3DF",
"gX c #A5CFD7",
"hX c #89C6E8",
"jX c #9BC4E4",
"kX c #88C9F8",
"lX c #91CDF6",
"zX c #99D7FA",
"xX c #A2CAE8",
"cX c #ABE4FC",
"vX c #A7E8FF",
"bX c #B8EDFB",
"nX c #D6EFF4",
"mX c #C7F5FC",
"MX c #D9FCFE",
"NX c #E3FDF9",
"BX c #F7FFFC",
/* pixels */
"w.m C 0.A 0.Z.%.j e.M.x.x.B.a.i.r.0.s.S v A y.q.a.7.l S s.A M.M.F.F D.M.n.A A M r.w.u.k.f.l M M A A ",
"7.7.0.l q.j.k.t.q.8.x.y.e.M m x q.u.y.m r.M d S q.m 6.q.l.F e.!.W.v M m g 5.V A A 0.a.R.8.C S M q.V ",
"r.u.m.C G./.m.q.t.t.l 0.h l x w.w.r.B r.S d x w.x G A l ^.G.r.z t./.m 0.m q.S A x M u.e.C l e.F D y.",
"r.M.t.s.K.W.B.u.r.N x.A C 0.r.x 0.b.D.S u.0.l w.e.x 7.s.m.M r.r.L.F.m u.F m.r.M q.e.G.m m x.^.M.D.y.",
"A.u.x.G.m.0.u.t.$.x.F.F l l 0.G.B.(.L.D.q.A p.q.4.M s.h.7.0.F B.t.u.F r.u.F.t.A m.n.S.x y.u.^.L.y.B ",
"s.t.r.h.A m e.m t.t.l w.u.A y.t.B.(./.q.0.C 0.q.g.F T.f.0.x B.M.m m t.t.y.A D.y.n.x.G.S.y.y.Z.u.g e.",
"V y.q.p.m.g.r.s.Z.r.M t.k.l.0.x m.A w.l w.u.7.V e.e.s.8.0.E.n.m t.m r.A.e.x.r.u.u.A.!.S.A.m.Z.C k e.",
"0.l.7.m y.m z.Q.r.m.S N k u.q.w.s.l 0.x l S w.x e.x x w.t.m.0.B m F t.m.t.F.S./.0.k.F m.E.k.w.w.j k ",
"n.p.8.x 0.0.y.l M g 7.8.M r.j m.&.k x 7.4.A w.b x 0.0.u.0.r.E.m A m.m.M m.F.W.F.x u.t.s.~.Z.e.e.x 0.",
"0.j.7.V m.Z.w.l x p.y.a.t.A A M.F M q.y.Q.y.e.l l w.u.r.r.z.0.0.r.k.q.F.n.B.B.v.u.g M q.M M e.C M 0.",
"S t.F l A 0.k.C s 0.m r.F x.u.s.M.t.m.z.Z.s.C C x y.A 0.r.B z.z.n.i.S p.k.Q.S.t.M M q.l g A M q.C 4.",
"m 5.S S h.r.q.7.7.m B N q.a.y.F v.u.u.v./.Q.m.s.u.j.g e.0.i y p G.H.H.H.c.B k.e.0.A m d e.M s.p.C q.",
"x M A A s.Z.m.j x y.q.M F G.q.n.q.M.u.A.k.Z.A.Z.m.e.n j 1.b.*X>X&XoX.._ ` _ +.*.c.a.e.M 0.t.A.7.g w.",
"k C l t.A M.s.m.Z.M l $.m.r.t.Q.E./.M k.F u.~.E.b r.1.L.yX1X$X| 1 @       X * 1 L U.F.j M 0.m f j 0.",
"s s j S $.x.u.t.q.r.0.s.s.u.B.x.F.M.0.x r.Z.E.&.2.9.2XqX#X| ! ! W 0 < ; $ + + . X - O.z.7.0.M M f.f.",
"l g A.A B u.r.b l A F k.S Z.m.G.Z.u.r.m A t.c u U.iX6X{.>.OX>...` e 9 ; $ # + O # % @ e $.q.0.t.0.x ",
"k x k M r.G.q.l q.s.m.a.G Z.v.M.S.A r.B.G i u 2XeXXXoX:X:X:XOX-.' W 0 < ; $ # O # = < * ^ $.F J.D j ",
"S x t.V.F r.j.7.n.W.g.s.r.y.c.x.B.6.b.x.u @.uX7XXX<XuXqX1X:XOX-.' W 0 < ; ; $ = = : 3 q 1 O.F.z.h p.",
"C x u.Z.F.M.w.e.s.u.M.y.u.R.S.m.x._./.y `.eX4X$XuXpXuXuX,X:XoX=.` W 0 < ; ; ; ; : 3 4 J J 7 v m w.Z.",
"w.7.Z.e.F !.A e.x 6.0.j.0.k.A.F b.Y.Y.yX9X#X1XsXsXpXuX1X:XOX:. .~ e 9 < ; ; ; : 3 4 J Y / U r l n.a.",
"s.F.0.m g 0.0.l q.t.e.N A g.v.A 9.I.3X5X;XaXjXsXpXuX1X:X+X>...` ! w 9 < ; ; : 3 4 J Y / { { Y v t.d.",
"F A y.V A 0.x 7.e.A h.x.u.r.1.v.,X8X-XuXjXjXsXuX3X1X:XOX>...' ~ e 0 < < : : > 3 K I R | ].}.{ a x.u.",
"x M y.h.w.0.q.i.Z.u.q.y.j u.`.<X6XqXfXxXsXpX3X1X:X@XOX:...' ~ W 0 5 < : > 3 3 8 P R / X.]..X.X_ e.t.",
"0.w.w.h.j M F q.x h p h P.>X8XaXxXxXsXuX1X,X:X+XOX>.-. .` ~ W w 9 < < > 3 3 q P T / | ].|.=X4X[ V m.",
"r.5.q.Y.G.j u 8.w.I.*X3XaXjXxXjXpX1X>X:X+XOXoX:.=. .' ~ ! W w 9 < < > 3 6 q L I E | o.}.XX4X7X}.i m.",
"q.m v L.U.I.*X2XyXuXpXpXuX1X:XoXoX>.:.-.=. .] ' ` ~ ! W w 0 9 < < > 3 5 q K I R } o.[.XX=X7XtX.Xl k ",
"t.x.F @.*.,.;.:.=._ K 2 - 2 P Q ! ~ ~ ~ ~ ! ! W W e w 0 0 5 < < < 3 3 q K I R } X.].|.%X6XwXtX4Xs e.",
"n.M.k.u.V.M.8.Z d a t 0 @ % , < < 5 9 0 0 0 0 0 0 9 9 5 < < < > 3 3 6 q I R ( X.].}.#X5XwXrXkX7Xl 0.",
"5.f N.M.V.W.M.m.r.r.c.B a < o . % ; ; ; > < < < < < < > > > > 3 3 6 K P R / | o.{.XX=X7XrXkXzX7Xd x ",
"A y.M./.s.u.n.z.r.r.x.w.u.x.O.1 X . $ # $ $ ; ; ; ; ; ; : > 3 3 6 q P T E | o.{. X%X6XeXkXzXvX6Xy u.",
"s.B 8.r.B.V.z.m.w.M m F v.S.s.@.) -   & O # $ $ $ ; ; ; : > 3 6 K P T E | o.{.oX$X6XwXhXzXbXvX;Xp M ",
"x m z 0.L.B.r.Z.v.x.b A k.q.w.A m.@.) o . + O # $ $ ; : > 3 6 K P T E | o.{. X$X5XwXdXzXcXmXvXoXp v ",
"M A M x.r.x.a.q.S.W.A 0.M q.u.p.m.G.L.+.1   + O O $ ; : 3 4 K P T E | o.[. X$X-X0XrXlXcXmXMXhX@.u.A ",
"0.t.x.t.i.z q.A Z.t.x S M 0.C Z.).B.B.Z.#.Q X . + O = : 3 8 P T / | o.[. X$X-X0XrXlXcXmXNXMX<X1.m A ",
"0.F n.F d.0.u.p.0.r.r.T.T.0.M.u.y.x.q.k S *.` -   $ = : 4 L Y E | o.[. X$X-X0XrXlXcXmXMXBXxXc S m.s.",
"W.F m m c.0.g.m.m S t.e.d.y.V.d.m.n.K.F N.t.r.+.e   & : 4 P R } o.[. X$X-X0XrXlXcXmXNXBXmXP.2.r.m.u.",
"s.b m D x.7.A M.B T.d.x u.y.g G V.m./.Z.m.r.0.t.@.W @ X < L R | ].|.#X-X0XrXlXcXmXNXBXMX&Xu Z.s.s.M ",
"S t.Z.v.r.A 0.G F t.q.M w.0.0.v./.F.y.m.x.r.r.c.0.r.O.q o - I | [.#X-X9XrXlXcXmXNXBXnX*Xu s.0.r.r.A ",
"n.v.v.0.M r.A.4.b.K.e.r.F s.r.0.y.n.u.$.m.u.0.m F v.Z.&.O.r - H [ |.-XwXkXvXmXMXMXgXP.1.b.G m.u.A.F.",
"~.Z.p.B r.w.M.M 6.(.W.x A m m z x w.v.F u.C.t.m m A.m.s.r.z.#.) W U '.%XwXrXhXiX&Xy p v.W.B.w.r.r.q.",
"0.d.k.m.F.u.f x.W.A E.u.0.0.M M M m v.N.u.u.!.x.r.y.F.y.y.R.S.B.%.T.&.c @.O.l p 1.M r.t.u.m.n.$.F p.",
"p.G Z.p.q.F m x.M.A w.x A u.0.r.m e.l 0.A a.F.M v.B r.l.r.A.S.F M T.!.t.e.7.7.r.C.q.e.F A e.m F W.n.",
"Z.i.S y.0.Z.m m M u.A n.s.t.B F F s.e.0.e.u.r.y.N a.^.j.t.r.t.t.Z.g w.A S u.m x w.w.f.t.y.r.t.n.t.x.",
"N x 0.u.y.q.v m.F q.u.t.p.A.n.n M r.r.h u.F M u.r.u.u.F u.A s z.D d 5.5.z m q.x x u.x Z.r.r.A.x.u.t.",
"s k w.x A D.M l M u.k.m.F s.G b M F m.B.m.B a.R.M v.N.D f 4.M D D v.m z w.m w.x l k 0.M k r.M.b.m q.",
"x q.F r.e.t.A M x 3.0.y.M A F v.n.x.B.K.n.F q.e.A k u.l A z r.N./.r.r.M u.m M j q.A 7.g k w.D.S j w.",
"j M u.F.Q.^.A.k j 7.0.s.S.x.x.Z.u.m.z.F.y.B K.b Z.(.A A M k u.^._.b.A.r.x.J.x.M w.0.y.s.j x.W.q.k q.",
"7.x y.Z.F.r.0.3.0.A r.t.M !.E.s.x.x.A k.G 6.m.S A ).q.F q.x F t.D.Z.Z.x.t.m.F 0.k p.Q.m.q.A 0.7.j x ",
"7.e.C u.k.A w.0.p.8.v.B u.0.p.Y.D.M.M.0.m x 7.b f g r.Z.A A A.V.M a.m.A.M g e.Z.t.0.u.0.y.x 0.A.0.7.",
"u.l.M k 0.q.w.G i.S M m.F.u.S p.Z.u.F M M i A D !.g 4.<.0.A.Q.h.m./.r.u.Z.F m w.l.q.z e.u.v M f.h.q."
};
