/* XPM */
static char *d4b6f7463f96429fbee28d150b60f607ssGnObfmlWChlPvH[] = {
/* columns rows colors chars-per-pixel */
"50 50 240 2 ",
"   c #456B04",
".  c #597B01",
"X  c #4F7117",
"o  c #577A1A",
"O  c #647B12",
"+  c #506E27",
"@  c #587626",
"#  c #5C7B2B",
"$  c #597634",
"%  c #5D7C33",
"&  c #627C2A",
"*  c #627D34",
"=  c #6C7A32",
"-  c #647C39",
";  c #000D4A",
":  c #03274B",
">  c #022D54",
",  c #02345B",
"<  c #093559",
"1  c #173C5C",
"2  c #293D58",
"3  c #002F67",
"4  c #043966",
"5  c #033C64",
"6  c #143E61",
"7  c #26415D",
"8  c #38455C",
"9  c #04446B",
"0  c #0A456A",
"q  c #0B446B",
"w  c #164669",
"e  c #054A76",
"r  c #154C74",
"t  c #02547D",
"y  c #0A557B",
"u  c #13547B",
"i  c #185579",
"p  c #264A67",
"a  c #354963",
"s  c #29526E",
"d  c #285877",
"f  c #365C77",
"g  c #36607B",
"h  c #85753D",
"j  c #5D8211",
"k  c #658713",
"l  c #5E8128",
"z  c #63832B",
"x  c #688728",
"c  c #708F2F",
"v  c #658234",
"b  c #698433",
"n  c #6B8A35",
"m  c #658438",
"M  c #6C853C",
"N  c #6C8A3B",
"B  c #748938",
"V  c #728B3D",
"C  c #76933A",
"Z  c #6E8544",
"A  c #768A47",
"S  c #7A9348",
"D  c #788A56",
"F  c #7D9258",
"G  c #7B8B64",
"H  c #7E9266",
"J  c #86913E",
"K  c #839549",
"L  c #919E43",
"P  c #83985A",
"I  c #859266",
"U  c #889867",
"Y  c #93A26E",
"T  c #005A83",
"R  c #035A87",
"E  c #00588B",
"W  c #175C83",
"Q  c #01638C",
"!  c #17648B",
"~  c #026895",
"^  c #01729A",
"/  c #19749B",
"(  c #266586",
")  c #2C6F8F",
"_  c #2D6F90",
"`  c #247597",
"'  c #367897",
"]  c #017AA3",
"[  c #177DA3",
"{  c #5B778B",
"}  c #517891",
"|  c #657A8B",
" . c #697E92",
".. c #30839C",
"X. c #008BA7",
"o. c #1781A6",
"O. c #0094AB",
"+. c #1697AD",
"@. c #0698B2",
"#. c #009CB3",
"$. c #189CB3",
"%. c #2D8BA6",
"&. c #3897AA",
"*. c #289BB2",
"=. c #369CB2",
"-. c #05A3B7",
";. c #1AA5B9",
":. c #29A3B6",
">. c #38A7B9",
",. c #47869C",
"<. c #57849B",
"1. c #76838D",
"2. c #69859A",
"3. c #4689A4",
"4. c #4A96AA",
"5. c #6D90A3",
"6. c #7796A7",
"7. c #46A5B6",
"8. c #44ACBC",
"9. c #4BACBC",
"0. c #50ACB7",
"q. c #53ACBB",
"w. c #58A9B8",
"e. c #59B2BD",
"r. c #67AAB8",
"t. c #7AACB8",
"y. c #68B2BD",
"u. c #76B7BD",
"i. c #00AAC5",
"p. c #32AFC1",
"a. c #3CB2C3",
"s. c #45AEC1",
"d. c #4BB2C3",
"f. c #48B8C7",
"g. c #54B4C2",
"h. c #5BB5C2",
"j. c #59BAC8",
"k. c #63BBC5",
"l. c #67BAC7",
"z. c #6ABBC5",
"x. c #74BBC5",
"c. c #77BBC6",
"v. c #59C3CE",
"b. c #65C3CC",
"n. c #6DC3CC",
"m. c #72C3CC",
"M. c #78C4C9",
"N. c #7CC4CB",
"B. c #6ACAD5",
"V. c #75CBD5",
"C. c #76CAD5",
"Z. c #7CCBD5",
"A. c #68D2DA",
"S. c #76D2DB",
"D. c #7CD4DC",
"F. c #7AD7E1",
"G. c #8A919A",
"H. c #89969B",
"J. c #99A687",
"K. c #9CA69A",
"L. c #ACAF8B",
"P. c #AAA99C",
"I. c #899CA3",
"U. c #969EA3",
"Y. c #94A3A4",
"T. c #9DA5A7",
"R. c #85AFB3",
"E. c #A5ABA4",
"W. c #A3ABAC",
"Q. c #A9B2AA",
"!. c #AEB0AC",
"~. c #B7B8AA",
"^. c #B6B9B5",
"/. c #BDBCB3",
"(. c #C1BEB6",
"). c #BFC0B8",
"_. c #C2C1B5",
"`. c #C3C2BA",
"'. c #CAC6B9",
"]. c #D2CABB",
"[. c #86BDC4",
"{. c #97BEC0",
"}. c #84C4CA",
"|. c #8AC7CA",
" X c #97C9CB",
".X c #83CBD3",
"XX c #8CCDD2",
"oX c #95CDD3",
"OX c #8BD1D5",
"+X c #87D4DA",
"@X c #95D2D6",
"#X c #9AD3D6",
"$X c #94D6DB",
"%X c #9BD4D9",
"&X c #9CDADC",
"*X c #ADCCCA",
"=X c #A4D4D5",
"-X c #ABD4D5",
";X c #A3DCDD",
":X c #A9D9DA",
">X c #B3D9D6",
",X c #B1E0DE",
"<X c #88DCE3",
"1X c #96DDE2",
"2X c #A7DEE0",
"3X c #B2DFE0",
"4X c #8FE4E9",
"5X c #95E3E8",
"6X c #A7E6E7",
"7X c #B7E5E3",
"8X c #AFF1F2",
"9X c #C5C6C2",
"0X c #CBCBC3",
"qX c #D5CEC5",
"wX c #D5D2C4",
"eX c #DAD5C7",
"rX c #D5D3CA",
"tX c #DBD5CA",
"yX c #D5DACE",
"uX c #DCDACC",
"iX c #C9D7D0",
"pX c #D7D5D0",
"aX c #DDDDD2",
"sX c #E1D5C4",
"dX c #E2DBCD",
"fX c #E1DED2",
"gX c #E2DFD8",
"hX c #D2E3D7",
"jX c #E4E2D4",
"kX c #E9E3D3",
"lX c #ECE8D6",
"zX c #E5E3DC",
"xX c #ECE5DA",
"cX c #EDEADB",
"vX c #F1E7DC",
"bX c #F3EDDD",
"nX c #CCECE7",
"mX c #EBE8E1",
"MX c #EBEEE3",
"NX c #F7F4E4",
/* pixels */
"b $ & v * v S - * V A Z Z A V B m m A m $ * m m A z $ - V v A S S - S A Z v - % N N N C c @ % % * * ",
"z z v @ b S S o . O v z x # @ o z b z @ v # + & x @ # b C # x J C $ $ # @ # & @ . . = K x & - % b & ",
"m M A & S S A L._.'.'.'.'.'.'.'.`.'.'.`.`.(.`.`.(._._./.(.`._._._./././././.^./.!.J.V k * @ n - * N ",
"m A m A M L.dXvXcXcXmXcXmXcXxXcXzXmXmXmXzXzXzXzXzXmXzXzXzXzXzXzXzXzXgXgXzXgXaXaXpXpX`.I   Z P A S N ",
"S N Z C L.xXbXMXNXNXNXNXNXbXbXbXcXbXbXbXcXcXcXcXcXcXlXcXcXkXcXxXxXxXxXjXxXjXfXjXgXtXtXrXJ.l P F m % ",
"V Z @ Y xXbXNXNXeXW.I.I.I.I.I.6.6.6.6.6.6.5.6.5.5.5.5.2.2.2.2.2.2.2.2.2. . .| G.`.fXrXwXrXU n Z + n ",
"& m A sXcXNXbX!.} ' ' ' ....[ o.[ ] ] ] ] ] ] ] ^ ^ ] ] ] ^ ^ ~ ~ ^ Q Q E t t T t T.aXtXqX_.S & @ n ",
"M k L.xXbXNXP.' <.} f f g f g f d f g ( ( ( ( ) ! i W i i i W W w r w q w w w W / e !.uX0XqXY j # @ ",
"A x ].vXNX'._ } f a 8 a 7 2 2 7 p 7 1 w w 6 < 6 q < < 5 < : : > > > : > > : : , W E 3.wXwX'.~.j % v ",
"l P tXbXbXH.) g 8 a a s f s p p s d r 1 6 w r < < q q , , 5 9 9 , 5 9 , : > 5 > : e %.*XwX!._.# % m ",
"# U dXbXkX1._ a 8 a 2 s d s w 6 w w w w 1 < q q , q e 5 5 e y q > > , 5 5 9 : > : , ..*XeXT./.S # l ",
"X I tXcXkX .d 8 a s s f s w i u ! i i W q q y W ~ 9 , W q 9 9 > , , , 5 , , : , q ; ..-XtXY.!.K & b ",
"X U tXxXkX .d 8 f d s s s w i o.` i r ! ` u r W W y e u 5 , R y q 9 9 5 > > 9 9 : ; 4.>XuXY.P.A + n ",
"  I rXxXkX .i 8 s d d s i r W ` r r r ! ! q r e 4 q [ ! 9 5 ! e 4 w q ! e 5 r q 5 w k.-XuXY.P.Z @ m ",
"  G tXxXkX .W a p s d ( ) [ %.' / / o.' R ) T ' <.^ ..Q ^ ~ T ) ( e T R 9 t t > e i l.-XuXY.E.Z c c ",
"X I eXkXfX| T p d s w d ~ z.=X>.d.j.}.y.>.d.q.%X:X;Xc.+.=.>.9.y.w.[.r.q.` %.r.} Q ' m.-XtXY.E.D v % ",
"  I rXjXkX .T 2 d p w ! &.%X7X1X4X8X-X:.-.6X,Xk.V.&XXX9.>.p.;Xw.m.|.7.OX.Xk.N.c.r.c.m.-XuXI.E.P - # ",
"o I eXkXkX| T s ( d 9 r.[.k.+X1X7X[.l.m.Z.nXy.-.k.n.k.l.e.f.:Xm.=X&.X.u. X}.[.l.h.OXV.-XtXY.!.D X C ",
"o G wXjXfX .t p w r T r.R.f.6X=X.Xe.#.b.6Xu.;.>.f.h.7.$.k.6XM.D.|.O.=.7.|.[.>XV.XXk.V.-XuXY.Q.Z z S ",
"l I rXjXfX| t s w 6 y ' c.:X|.-Xz.N.l.V.:X;.>.V.nXe.:.O.j.w.m.;Xl.>.#.V.,X:.N.c.}.y.Z.-XuXY.Q.Z B B ",
"x Y wXjXdX{ t 1 w q r y -.N.:.XX0.$.g.v.7X&Xl.N.#X.Xk.n.z.O..X}.@.f.b.%X}.Z.=X0.g..XB.-XuXY.E.A * V ",
"# I 0XjXdX<.R 1 r u t ..N.=Xm.XXn.9.p.$X%X=Xc.#.-.V.1XnX:X:.b.g.X.j.|.O.n.[.e..Xc.c.S.-XtXY.W.D - V ",
"X H wXjXdX<.Q w i i t 3.=XM.B.N.>.j.A.;X7.#.f.Z..X@XN.}.V.$XD.;X@XXX+.>.@X[.8..Xj.V.+X-XuXT.P.Z m M ",
"o U 0XfXdX{ T 6 < e i 4 s.>X8.1X#X>.+X|.#.*.j.$X;X|.O.:.;.Z.&X&X;X;X.Xn.e.7.s.z.@XZ.V.-XuXY.E.A z A ",
"# H 0XjXdX{ T 6 y W e Q  X Xa.;X@Xn.OXOXf.j..X9.-.j.d.8.>.g.h.f.$.Z.;X#.e.X.c. Xw.XXV.-XtXY.Q.Z # M ",
"z G rXjXuX{ T 6 y i 9 r.r.;.a.c.m.>Xg.V.D.nX0.:.>.>.j.;.+.>.g.7.>.k.e.p.j.+.z.;Xh.7.V.-XuXT.!.M m + ",
"b U `.jXdX{ R q 9 1 3 oX*XO.g.y.;.h.l.b.m. Xm.:.$.#.j.#Xh.B.j.#.f.>.8.+.a.5X&X9.c.OXZ.>XtXK.Q.Z + n ",
"b U 0XfXdX{ T q e w 3 r.@XX.h.>X>.O.B.n.h.#.g.n.l.n.&X X>.V.nX|.d.X.m.XXc.2Xu.8.z.+XS.=XtXY.!.K x % ",
"o G 0XdXuX{ T r t t r Q S.N.XX X8.;.+Xg.v.>.-.f.5Xu.:.c.>.i.nXR.k..Xy.z.&.7.q.7.$X.XS.=XtXY.!.S * # ",
"@ U 9XaXuX{ Q w < y t 3. X>X%Xr.+X2X,XN.7X-Xd.v.m.*.$.d.8.$.p.:.>.7Xw.8.>.^ n.6X=XN.V.-XtXY.E.Z @ n ",
"n H 0XaXtX{ E 1 e r 5 <.4.b.r.X.d.OXnXe.c.c.9.XX=X>.@.d.m.>.j.&X%X=.=.D.6X.X.Xc.[.>.S.=XeXY.E.D l # ",
"X G 9XaXtX{ R 6 y 5 y t X.h.&.+.h.m.|.X.>.>.X.g.u.m..XN.:X7XV.k.Z.7.X.V.6Xh.N.7.q.N.D.=XeXY.E.A * $ ",
"o H 0XaXtX{ Q q 9 9 9 ` >.}.w.z.h.D.|.q..X7.+.s.*.$.z.-.XX[.f.a.g.N.h.X.d..Xb.@Xm.+XS.:XeXI.E.F v * ",
"z H 0XfXtX{ Q < e u 4 4.,Xu.q.0.#.nXhX|.=Xc.+.s.=Xq.n.m.%Xy.#.f.OXw.h.#.+X:XB.oX.X&XV.-XtXH.P.P @ * ",
"# G 9XaXuX{ Q 6 t q 4 ,.w.>.e.y.+X>X&.O.O.9.h..XMXy.b.0.;.N.&.>.,X4.:.7Xw.O.#Xc.h.c.S.-XtXI.Y.D V V ",
"J G 0XfXtX{ ~ < 9 q 3 <.%.X..X=Xk.M.X.*.*.$.f.6X*X-.l.O.j.q.n.k.:.N.y.}.h.9.c.z.XXb.D.=XrXI.E.A N M ",
"c G '.dXtX{ Q q 9 i E t.|.>.|.4.X.s.l.8.b.+X@Xz.k.&XoXD.MX X+X Xf.&X&.;.b.2Xz.l.c.Z.Z.-XrXH.K.F B % ",
"# G '.aXeX{ E < 9 t T ! }.e.n.$.q.e.=X.X+X}.>.>.e.N.X.9.=X&.9.8.m.&X+Xj.g.y.g.%Xn.V.+X=XrXI.P.A v * ",
"b U 0XuXeX{ Q < 9 W 4 } R.X.D.=X=.&.*.OXXXc.>.:.O.}.r.O.b.=.9.|.*.>.l.$X;Xc.>.2X$X<X$X>XwXH.P.S C S ",
"L U '.uXtX| ~ w 9 u ; 5. X-..X>XO.X.+.m.4.4.8.}.r.0.7.N.&X$X;X|.q.w.*.n.N.N.m.f.+X6X4X>XqXI.K.D * v ",
"v A `.tXuX1.E u q u t &.XXc.8.n.%X Xh.OXw.X.f.7Xc.+.=.N.N.&X}.j.2Xz.*.k.c.l.4Xb.4X8X5XiX].H.T.D - B ",
"c = (.qXuX~.^ ` e 3 4 ! }.l.m..X7Xr.#.XX#Xc.7Xe.v.m.@Xa.k.q.:.6XXXg..XXXOX+XA.8X8X8X8XyX`.1.W.- K Z ",
"S . L.qXtXeX{.j.w.3.,.y.<X5X+XD.<XV.V.<XF.8X6XA.A.4X6XB.<X1XD.5XS.S.4X4X8X4X5X8X8X6XnXwXT.G.K.x Z Z ",
"- @ F ].qXuXuX-X+X<XF.F.F.S.F.F.+X<XF.F.S.F.F.4X<XS.F.<XF.F.F.D.<X4X<XF.F.<X<X4X6X7XwX9X| ^.U m Z M ",
"+ $ . L.qXqXuXuXiX:X%X#X#X#X@X@X#X#X#X#X%X#X@X@X%X@X#X%X@X%X=X#X@X@X@X@X%X%X@X3XiXwX0X1.W.K.x A $ v ",
"# b - m ~.tX9X`.tXuXaXuXjXuXuXfXuXfXuXjXaXaXaXaXaXaXaXaXaXuXaXuXaXaXuXuXuXyXtXwX'.^.| U.!.z S - # n ",
"# % N S K ~.tX9XW.W.W.T.W.W.W.W.W.W.W.W.W.W.W.W.W.W.W.W.T.T.T.T.T.W.T.T.T.Y.U.U.H.I.^.~.- m K b @ b ",
"z # m S S # Y /.0X`.(./.).`.`.`.*X`._.`.(.`.(./.^./.(.(.(.(./.(././._._./.~.^.^.^.^.J.b b * m z @ # ",
"z n & N C - j . S P U I U F U U U U U P D F P D D F I Y F D Y Y F I U Y F D P Y F o k m N # m S v z ",
"N C % $ m b N Z b & + b B z & x C x # o @   @ & K   o h o C S x n S z n c # + l c m $ n N $ % c C v "
};
