/* XPM */
static char *_510b4e201034108a1102b8be7751283YtHYoWFC6qTQz4ZW[] = {
/* columns rows colors chars-per-pixel */
"50 50 256 2 ",
"   c #370910",
".  c #49040C",
"X  c #520E0D",
"o  c #59140C",
"O  c #670409",
"+  c #780307",
"@  c #6E150F",
"#  c #573418",
"$  c #682213",
"%  c #7B2814",
"&  c #773014",
"*  c #1D6A2D",
"=  c #357329",
"-  c #704F1E",
";  c #525326",
":  c #496B27",
">  c #526D2A",
",  c #4C722B",
"<  c #567826",
"1  c #54742A",
"2  c #5A752C",
"3  c #5B7B2C",
"4  c #566F32",
"5  c #4A7B34",
"6  c #567736",
"7  c #5B7532",
"8  c #5D7B33",
"9  c #5D7B3A",
"0  c #70672A",
"q  c #627D2D",
"w  c #697C28",
"e  c #787829",
"r  c #677A37",
"t  c #637D34",
"y  c #6A7E35",
"u  c #647D3B",
"i  c #667D41",
"p  c #707C43",
"a  c #870003",
"s  c #950104",
"d  c #851A0B",
"f  c #961805",
"g  c #920C12",
"h  c #B70302",
"j  c #B00C0F",
"k  c #A51808",
"l  c #99280C",
"z  c #883918",
"x  c #923212",
"c  c #A7280A",
"v  c #B82B07",
"b  c #AA360B",
"n  c #B63809",
"m  c #B23A14",
"M  c #913623",
"N  c #C70302",
"B  c #CB1807",
"V  c #E91700",
"C  c #C62A01",
"Z  c #D62004",
"A  c #C83801",
"S  c #D73A02",
"D  c #8F4F15",
"F  c #994516",
"G  c #B8480B",
"H  c #B04E15",
"J  c #B95918",
"K  c #9A6710",
"L  c #AB6F12",
"P  c #B9671B",
"I  c #935424",
"U  c #B15823",
"Y  c #8A712F",
"T  c #A96A22",
"R  c #AE722B",
"E  c #B87825",
"W  c #C84708",
"Q  c #D64702",
"!  c #C95A0A",
"~  c #D55707",
"^  c #C74C15",
"/  c #C45917",
"(  c #D45618",
")  c #E54B02",
"_  c #E75903",
"`  c #F45602",
"'  c #E85B15",
"]  c #DA6608",
"[  c #D5720B",
"{  c #CA661A",
"}  c #D76717",
"|  c #C87818",
" . c #D87A16",
".. c #E56807",
"X. c #F76702",
"o. c #E97709",
"O. c #F67705",
"+. c #FB7A01",
"@. c #E46916",
"#. c #E87618",
"$. c #F67D18",
"%. c #CC5829",
"&. c #C96926",
"*. c #D56B24",
"=. c #C67A27",
"-. c #D67824",
";. c #EB7926",
":. c #8B7648",
">. c #2B882E",
",. c #578B16",
"<. c #738E14",
"1. c #5B852A",
"2. c #4D902B",
"3. c #4D8338",
"4. c #5E8332",
"5. c #588538",
"6. c #63832D",
"7. c #68882B",
"8. c #758B2B",
"9. c #6C942A",
"0. c #648334",
"q. c #6A8434",
"w. c #668A35",
"e. c #6B8A35",
"r. c #65823A",
"t. c #6B843B",
"y. c #658A3B",
"u. c #6B8A3B",
"i. c #728433",
"p. c #728D35",
"a. c #73843B",
"s. c #728C3D",
"d. c #7A8C3C",
"f. c #6D9233",
"g. c #699339",
"h. c #74933B",
"j. c #799538",
"k. c #45A730",
"l. c #71A633",
"z. c #448B43",
"x. c #5B8842",
"c. c #6C8542",
"v. c #6A8844",
"b. c #728642",
"n. c #738B43",
"m. c #798947",
"M. c #7A8D45",
"N. c #758C4A",
"B. c #728E4E",
"V. c #749244",
"C. c #7A9343",
"Z. c #7C934A",
"A. c #7A9749",
"S. c #7C9554",
"D. c #54A241",
"F. c #7AA647",
"G. c #9C961B",
"H. c #B1931A",
"J. c #919227",
"K. c #878936",
"L. c #958C36",
"P. c #88993B",
"I. c #989A37",
"U. c #A98928",
"Y. c #B98925",
"T. c #AA9A25",
"R. c #B89726",
"E. c #AD9036",
"W. c #89A739",
"Q. c #96A639",
"!. c #93B130",
"~. c #AAA627",
"^. c #AFB02D",
"/. c #B8A738",
"(. c #CA8C1B",
"). c #D98618",
"_. c #CD9715",
"`. c #DA981B",
"'. c #EA840C",
"]. c #F88805",
"[. c #EA960A",
"{. c #FA9704",
"}. c #EA8718",
"|. c #F68A19",
" X c #EA9A1A",
".X c #F79618",
"XX c #D1AC15",
"oX c #E5A60A",
"OX c #FBA606",
"+X c #FDB406",
"@X c #E9AF1A",
"#X c #F8A718",
"$X c #FBB818",
"%X c #C6882C",
"&X c #D98926",
"*X c #CB9729",
"=X c #CE8B35",
"-X c #D89733",
";X c #E68726",
":X c #E89624",
">X c #F59625",
",X c #F08F30",
"<X c #E79A3A",
"1X c #C6A826",
"2X c #D8A826",
"3X c #D1B82C",
"4X c #C8A535",
"5X c #DAAB39",
"6X c #C8B935",
"7X c #D9BA37",
"8X c #E7A42B",
"9X c #F8A829",
"0X c #FAB828",
"qX c #E8A739",
"wX c #F5A835",
"eX c #E6B536",
"rX c #F9B834",
"tX c #9DC72C",
"yX c #BDC131",
"uX c #FECE10",
"iX c #FDC41A",
"pX c #D1CA35",
"aX c #E9C224",
"sX c #FBC727",
"dX c #FED429",
"fX c #EAC634",
"gX c #FAC735",
"hX c #E8D53C",
"jX c #FCDA35",
"kX c #FAD63B",
"lX c #FCE239",
"zX c #859749",
"xX c #949A47",
"cX c #8B9250",
"vX c #859953",
"bX c #A99144",
"nX c #8CA449",
"mX c #A8B74A",
"MX c #B2B551",
"NX c #CFB74B",
"BX c #EDB349",
"VX c #BAD751",
"CX c #D8CA49",
"ZX c #D2D14A",
"AX c #EAC948",
"SX c #F9CA45",
"DX c #EAD64B",
"FX c #F9D948",
"GX c #F0D056",
"HX c #FAD956",
"JX c #FDE242",
"KX c #FEEA4A",
"LX c #F2E956",
"PX c #FCE358",
"IX c #EFDB68",
"UX c #F6EC66",
/* pixels */
"q.7 q 0.t 0.V.p 3 e.m.c.c.N.a.i.r.0.s.r 4 t y.u.a.6., r s.t M.M.Z.u N.n.b.t t 9 r.w.u.h.f.2 8 8 t t ",
"6.6.0.2 0.h.C.t.0.7.c.u.e.8 7 3 0.u.u.7 r.8 1 r q.7 g.q.j.u e.cXzX5.w.7 1 4.q t t 0.a.zX7.q r 8 0.q ",
"r.u.n.q A.vXn.q.t.t.2 0.< 2 3 w.q.r.9 r.y > 3 e.= Q.Q.: vXA.u.3 6 mX8.r.7 0.y t 3 8 u.e.q 2 e.u t y.",
"r.M.t.s.B.zXN.u.r.9 c.t q 0.r.3 0.B.B.u r.4., 5 mX5Xw u.V.4.9 z.MX4X: u.u n.r.8 0.e.A.7 7 v.vXN.Z.u.",
"C.u.v.A.n.0.u.t.i c.Z.u 2 2 0.A.N.vXS.Z.w.k.W.CXqXY u.j.2.k.W.DX-Xt u u u.Z.v.0.n.b.A.3 u.u.vXS.r.9 ",
"s.t.r.p.t 7 e.7 t.t.2 w.u.t y.t.N.cXvXt !.pXPXwXI 3.cXj.tXZXCX;X; 5 t.t.y.t Z.u.b.c.A.C.u.u.V.u.1 e.",
"q u.q.p.n.h.r.s.C.r.8 t.C.j.0.3 n.4.6 I.gXPXBXj 2.p.5.6XkXAX&.I x.7 r.C.q.c.r.u.u.C.zXA.C.n.C.6.1 e.",
"0.j.0.7 u.7 c.zXr.n.r 6 2 u.u.4.j.6.5.BXHXGXS T 2.2.l.AXAX&.Q K.6 u t.N.t.Z.A.vX0.j.u N.zXh.q.w.< 1 ",
"b.p.7.3 0.0.y.2 t < 6.6.8 r.< j.I.* mXBXFX[ ) Y.l.!.DXSX| A #.Y 8 n.n.t N.Z.zXZ.3 u.t.s.nXC.e.e.3 0.",
"0.h.6.q n.V.w.2 3 p.u.a.t.t 5.1XY * NX9XsXG Q =XpXFXGX{ (.C @.R 5.j.1.Z.n.N.N.v.u.1 8 q.8 8 q.q 8 t ",
"r t.u 2 t 0.h.q : 0.7 r.c.9 Q.#XK.3.4X*.2XK k eXHXHX%.| :Xs ^ -.zXt.7.j.v.zXC.q.t 8 q.2 1 t 8 q.q 1.",
"7 4.r r f.r.q.6.6.7 9 9 0.u Q.OX%Xz.E.U R.] bXBXPX&XQ U.`.J + } -Xj.5.G.K., s.q.r.q 7 > e.8 s.s.q w.",
"3 8 r t s.V.n.3 3 e.0.6 r.M.zXwXX.R 0.1XK / BXrXgXC @.T L 4Xe s ] 2X2.w (.F.V.d.r.a.w.t 0.t.C.6.1 w.",
"1 q 2 t.t M.s.n.V.8 1 W.n.t.y.5X#._ R.2XO 0 qX>X0Xk W =.K =.W.| m ..R.>.P /.D.p q vXA.3 9 u 3 , 3 0.",
": : 3 y i c.u.t.u.5 I.6X5.s.B.NX;.{ -X#Xz # *XU >XJ + } %XP L.^.[.~ ..J.F P l., t c.zXe.0.0.8 8 f.f.",
"2 1 C.t 9 u.r.4 7 >.pXaX5 v.mXAX{ } -X.X] # R F H #.F f #.*X9.e `. XA / x U f.1.t t.0.t t u.0.t.0.3 ",
"1 3 1 8 r.A.w.1 t.5.hXuX/.x.DX7XG ( %X8XX.{ e D @ G #.J l o.~.0 [ /.8.c x I 8.6.r u.7 b.s.t.9 B.u < ",
"q 3 t.Z.u r.h.1.b.N.pXiX+XfXDX7XJ c P 5X#._ ^ & $ O H {.}.W o.H.K &.F.D M z K.5.t u.9.t.u.C.S.c.< h.",
"q 3 u.C.S.M.e.4.u.r.nXkXOX_.pXaX:Xs U.AX} } v n % $ . F +XOXA | D H P.e + I a.t.8.g.W.n.8 Z.b.1 e.V.",
"w.6.C.q.u xX8 f.6.t 5.Q.lXyXpXaX9X~ CXrX^ } W c c % z % J #X} n x U 7.E x Y 3.q Y.!.h.r.c.t.t.1 n.a.",
"s.Z.0.7 1 0.4.J.e.r.9.6.P.hXhX+X@XqXJXwXv J ~ n G f d K | ! ;Xl x M Y Y.T - 2.R.&XnXg.j.vXn.c.u u d.",
"u t y.q 0.3.U.Y.5.r p.t.5 ^.hXiXOX0XgXgXP g J n J  .c d `.[ o.P @ M E H.U.P !.).Y 5.J.I.5 xXM.r c.s.",
"3 8 u.j.e.f.).U.x.s.e.w.7.!.LXfXiX{.].0X#Xb d m s P  .k  .:X+.@.% I E  XU.^.~.n i.z.Y.R.5.q.t 7 u.t.",
"0.q.e.w.I.~.| `.1.4 8 K.9.ZXLXH.FXlXrX|.9XO.b d b c [.'.[.&..X` P & J.R.=.yX*X- J.T.[.4Xv.p.0.3 w.s.",
"u 4.y F.5X`.P [.XX1.K.G.!.PXDXoXFXhXSXSXgX$._ l b k oX+XOX^ |.` &XU J.*X&.hX-X9.1X].{.bXy.M.0.< 3 t.",
"r.3 > F.eXO.=./ .XR.(.2XgXjXJXJXkXpX0X|.FX9X` n b v  XOX].] ..) o.;X8X .=.gX%X2X}.O.-.y m.a.2.< r.> ",
"u.n.0.3.7X{..X-.%XT.).[.sXKXFX9X[.VXKXX.SXgX` ~ h -.sX{._ '.~ W ) #XgXh *X!.(.:X^ Q R 5.b.f.< < 1 e.",
"a.m.d.x./.sX+X$X5XR.| oX^.8X..L l.LXPX{.PXkX+.Q %.GXsX$.) ~ v W ) 0XeXz ~.`.{.&Xm x K.1.1.3 q.f.e.3 ",
"4., m.b.zXqX0XkXqX).T '.oXG.1X^.CXJXkXdXKXgX].} GXjXgX_ v k c ~ X.gX<XG.@X+.].R & I g.5 Q.8.7 q.t 3 ",
"t y.M.vX5.I.-.=XeX+.&X/ $..X9X9X$XJXKXkXsXdXO.HXjXPXwX~ k k G ].$.gX>X.X@._ { e F T = 2 j.6X4.1.2 e.",
"h.9 7.r.y.v.xXE eX+X{.#X}.:X X0XFXkX9XX.iXOXBXKX+XUX|..XN h [.].9XsX#X .v n R R ! E 6 3 >.pXI.5.6.2 ",
"3 7 1 0.S.5.5 Q.7XrXiXiX0X.X#X9X|.|.V _ +X@.FXuX.XKX].9X XZ ].{.sX0X].{ l z %X;X(.*X9.9.<.DXxX8 u 4 ",
"8 t 8 c.9 c.6.5 /.-X:XgXJXFX>X` V :X X` {.' gXOX` gX0XO.dX X' +.jXgXO.*.a U U.;X;XaXT.<.CXPXxXv.t.q ",
"0.t.c.t.f.1.6.= Q.>X%X/ } qXHXHX9XX.9XiX+XO. X{.S ) #X{.#XdX$X+.kXSX` -.m P ).rX*.XXpXZXUX5Xv.n.2 t ",
"0.u b.9 d.W.7.i.f.).}.(.m h Q 9XkXsX+.9XuX+X].].Q C ..}.O.#X$X].0XkX_ ;X! &XL ~.2.^.gXiX.XxX5.r n.a.",
"zX9 7 6 4.6X<.5 CXXX .AX8Xb c @.dXdXdX+.0XiX{._ ~ B ] '.! _ {.+.O.dX X;.;X#XJ.,.H.PX8X_ L.3.d.0.n.a.",
"s.7 9 6 P.fXw mXCXOX4X7XeX#.m h DXjXiXgX;.rX+XQ W A ..{.G H S ] o.uX#X9X;..XfXeXUXHX~ R 3.q.s.s.s.9 ",
"r t.C.c.P.fX<.IXhX3X7X] fX|.~ h IXKX+XFXB eXgX( N Q Q #XJ a n h [ iX+.9XeXo.0XlXkX;XP e.r.e.0.r.r.t ",
"b.v.n.e.3.7XXXIXpX!.T.` AX.X..BXUXJX+X}.A #X0X8X/ G =XqXs % l a *XOXo.` wX} ..].#.qXE.5.b.u n.u.C.Z.",
"xXC.s.u 9 j.@XSXmX6X1X<XFX{.rXHXlXgXO.A ] wX]...}..X>XA + . O U.0XO.} S $.=XC } | qXL.r.zXZ.e.r.r.0.",
"0.d.h.n.A.5.8.3X6X7X1XIXjX$XFX#XjX>XS v =X,X~ h _ _ ) ] L T.7X0X{.Q ^ v Q qXJ { #.=Xt v.u.N.b.i u s.",
"p.y C.s.0.t.6 , I.fXJ.UXdXkXgX$.gX$.B &.,XC ] A W n Q O.$X$X#.O.W n c d S wX%XT =Xq.w.r.8 e.7 u zXb.",
"V.i.y u.0.n.7 u = 6XoXLXjXjXgX' >X|.S <X( a ] ..s f v ~ G s Q ~ k l @ % W wX/.e e.w.f.t.u.r.t.n.t.c.",
"9 3 0.u.u.0.4 n.t 8 3XkXFXjXJX;X' |.|.wX^ O f ..G a c + . x W c d o @ & ~ <XL.5 4.u.3 V.r.r.C.c.u.t.",
": 1 q.2 t A.8 2 9 t.g./.kXdXlXjX#.S [.rX-.O $ f G l + . X b b d . X $ b -.E.5.t 2 1 0.8 1 r.N.v.7 0.",
"3 0.u r.e.u.t 8 8 1.e.5 i.6X0XsXiXo.A  XrXn   o @ x @   % b d .   X a J L., 4.3 0.t 6.1 2 e.A.r 3 w.",
"3 8 u.Z.zXvXC.1 3 6.0.d.C.5.E.*.).+.) N :X9Xb   o o o o x %     . @ Y a.x.B.c.8 e.0.r.s.3 c.zX0.1 w.",
"6.3 u.V.Z.r.0.1.0.t r.t.0.xXV.s.Y U Q S N } *.j . . o o .     # 0 a.V.v.u.n.u 0.2 s.zXn.q.t 0.6.< 3 ",
"6.e.q u.j.t q.0.p.7.n.9 u.0.d.P.B.v.b.Y P / ] '.[ G f $ # ; r b.r.c.n.C.t 1 e.V.t.0.u.0.u.3 0.C.0.6.",
"u.j.8 1 0.w.w.y i.y 9 n.Z.u.y s.C.u.r.5 5 : i.L.NXU.e :.0.A.nXj.n.zXq.u.V.u 7 q.j.0.< e.u.4 8 f.p.0."
};
