/* XPM */
static char *d18ee0875ca3471a85458b2e15d5840aU5kO7TtSMthrHcIg[] = {
/* columns rows colors chars-per-pixel */
"50 50 243 2 ",
"   c #010001",
".  c #0B0907",
"X  c #0B0C15",
"o  c #00001A",
"O  c #060718",
"+  c #090C1B",
"@  c #0E1219",
"#  c #11151A",
"$  c #040821",
"%  c #00012D",
"&  c #071027",
"*  c #0C1324",
"=  c #0C162B",
"-  c #0E192D",
";  c #131725",
":  c #131B2C",
">  c #000033",
",  c #000B3B",
"<  c #0D1B34",
"1  c #0B1939",
"2  c #141E32",
"3  c #111E39",
"4  c #0E213C",
"5  c #1A2435",
"6  c #162438",
"7  c #11223C",
"8  c #1E2A3B",
"9  c #222534",
"0  c #202C3E",
"q  c #213232",
"w  c #3A5011",
"e  c #354C38",
"r  c #425C0F",
"t  c #516E00",
"y  c #5B7500",
"u  c #647E00",
"i  c #657C1F",
"p  c #455933",
"a  c #4C6827",
"s  c #4E6C25",
"d  c #516D29",
"f  c #4F7423",
"g  c #4E7329",
"h  c #537325",
"j  c #587526",
"k  c #5B7B24",
"l  c #54732B",
"z  c #5A752C",
"x  c #56792B",
"c  c #5B7B2C",
"v  c #486338",
"b  c #556E33",
"n  c #547333",
"m  c #5B7533",
"M  c #567A30",
"N  c #5D7B33",
"B  c #5C7539",
"V  c #5E7B3B",
"C  c #617D27",
"Z  c #627D2D",
"A  c #616F3C",
"S  c #647537",
"D  c #627D34",
"F  c #697E33",
"G  c #647D3A",
"H  c #6B7D3B",
"J  c #00154E",
"K  c #0D2242",
"L  c #122644",
"P  c #132846",
"I  c #152C4C",
"U  c #142E52",
"Y  c #183354",
"T  c #193559",
"R  c #1A3559",
"E  c #232E40",
"W  c #263344",
"Q  c #283547",
"!  c #2B3A4B",
"~  c #313A4E",
"^  c #2E3E51",
"/  c #1D3C63",
"(  c #013570",
")  c #384F4C",
"_  c #354557",
"`  c #354659",
"'  c #1C426C",
"]  c #1C4375",
"[  c #214065",
"{  c #2B4863",
"}  c #22446C",
"|  c #374C62",
" . c #3A5368",
".. c #264B73",
"X. c #294C74",
"o. c #244B78",
"O. c #2A527E",
"+. c #3E6C70",
"@. c #485A48",
"#. c #4B6646",
"$. c #5A7546",
"%. c #4B6657",
"&. c #536D51",
"*. c #637D41",
"=. c #6C7D42",
"-. c #64764C",
";. c #6C7C4F",
":. c #42566D",
">. c #455C72",
",. c #485F75",
"<. c #49657A",
"1. c #647473",
"2. c #8A7A48",
"3. c #688400",
"4. c #708A0A",
"5. c #5E8126",
"6. c #5E812C",
"7. c #5D8132",
"8. c #67862A",
"9. c #63832D",
"0. c #748D29",
"q. c #648334",
"w. c #6A8434",
"e. c #668934",
"r. c #6B8A35",
"t. c #65833A",
"y. c #6B843C",
"u. c #67893A",
"i. c #6C8A3B",
"p. c #728C36",
"a. c #72843C",
"s. c #778839",
"d. c #728C3C",
"f. c #6E9034",
"g. c #6D903A",
"h. c #739134",
"j. c #74923C",
"k. c #7A9739",
"l. c #7A943D",
"z. c #668242",
"x. c #6B8443",
"c. c #6D8A42",
"v. c #6C884B",
"b. c #718642",
"n. c #738C43",
"m. c #7A8D45",
"M. c #798749",
"N. c #748C4A",
"B. c #6F9144",
"V. c #759143",
"C. c #7B9343",
"Z. c #7D9843",
"A. c #75924A",
"S. c #7B934B",
"D. c #7E994C",
"F. c #778C54",
"G. c #7D9455",
"H. c #5B8A7F",
"J. c #719172",
"K. c #82993F",
"L. c #868B49",
"P. c #869645",
"I. c #839A45",
"U. c #839549",
"Y. c #8C944B",
"T. c #829B4B",
"R. c #899D4C",
"E. c #8B9653",
"W. c #829A52",
"Q. c #859857",
"!. c #919B56",
"~. c #8EA152",
"^. c #90A169",
"/. c #1F5894",
"(. c #2E5682",
"). c #2C5B8D",
"_. c #315A87",
"`. c #255C99",
"'. c #38628F",
"]. c #2E6599",
"[. c #3A6797",
"{. c #366CA3",
"}. c #3775AE",
"|. c #3A79B4",
" X c #536D85",
".X c #497A89",
"XX c #57758B",
"oX c #45759E",
"OX c #5A7A95",
"+X c #637E96",
"@X c #4372A3",
"#X c #4779AA",
"$X c #427CB1",
"%X c #5B809A",
"&X c #749687",
"*X c #66839C",
"=X c #518AAA",
"-X c #4C83B4",
";X c #4A86BE",
":X c #5285B7",
">X c #698BA6",
",X c #6A91A7",
"<X c #7498AB",
"1X c #6896B8",
"2X c #7498B5",
"3X c #7CA2A8",
"4X c #7DA2BD",
"5X c #7CADBF",
"6X c #4F8EC9",
"7X c #5895C9",
"8X c #6398C7",
"9X c #659ED1",
"0X c #5DA4DA",
"qX c #7BA7C9",
"wX c #66A4D8",
"eX c #7AABD3",
"rX c #73ACDC",
"tX c #6EB4ED",
"yX c #78B5E7",
"uX c #80A193",
"iX c #87AFB6",
"pX c #85ABC7",
"aX c #89AECB",
"sX c #8CBACD",
"dX c #93BAD8",
"fX c #8FBCE0",
"gX c #98C5DA",
"hX c #AACCDB",
"jX c #87C1ED",
"kX c #9DC5E4",
"lX c #87C5F3",
"zX c #90CCF7",
"xX c #9AD7FB",
"cX c #A2CAE8",
"vX c #A2DDFB",
"bX c #A9E7FD",
"nX c #B6EBFB",
"mX c #B7F1FE",
"MX c #C9F5FD",
"NX c #D4FAFB",
"BX c #DAFBFB",
"VX c #E9FFFD",
"CX c #F5FFFA",
/* pixels */
"e.m Z q.D q.V.=.c r.m.x.x.N.a.s.t.q.d.F b D t.w.a.6.l F d.D m.m.S.G A.m.b.D D B t.e.i.l.f.j N N D D ",
"9.9.q.j w.j.C.y.w.8.x.i.r.N m c q.i.i.m t.N d F w.m 7.w.k.G r.Y.U.b N m l 7.C D D q.a.L.8.Z F N w.C ",
"t.i.n.Z S.R.n.w.y.y.z q.j z c e.e.t.V t.F d c w.c H D j W.D.y.x y.Q.m q.m q.F D c N i.r.Z z r.G S u.",
"t.m.y.d.F.U.N.i.t.B x.D Z q.t.c q.v.A.F i.q.z e.r.c 9.d.n.N t.t.G.S.m i.G n.y.N q.r.D.m m x.W.m.A.i.",
"Z.i.x.D.n.q.i.y.*.v.S.G z j q.D.N.!.G.A.y.q.p.w.6.N d.h.9.q.G N.y.i.H t.i.S.y.F n.b.Z.c i.i.W.G.t.V ",
"d.y.t.h.D m r.m y.y.j e.i.D u.x.N.E.Q.q.e.Z q.q.g.G L.f.q.c N.m.m m y.y.u.D A.i.b.x.D.Z.i.i.V.i.h r.",
"C i.w.p.n.g.t.d.V.t.N y.l.k.q.m n.D e.z e.i.9.C r.r.d.8.q.I.b.m y.m t.C.w.x.t.i.i.Z.R.Z.C.n.C.Z l r.",
"q.k.q.m i.m z.T.t.n.F B l i.w.e.d.z q.c c F e.c r.c c e.y.n.q.V m G y.n.y.S.Z.W.e.l.G n.I.d.e.e.k l ",
"b.p.9.c q.q.u.z N j 9.8.N t.k V.=.z c 9.6.D e.n c q.q.i.q.t.I.m D n.n.N n.S.U.S.c i.y.d.~.C.r.r.c q.",
"q.j.9.C d.V.e.z c d.c.n.y.G N m.G N w.i.T.i.r.z j e.i.t.t.z.q.q.t.k.F S.n.N.N.c.i.l N w.N N w.Z N q.",
"F y.G j D q.l.q.n 8.y u i w.d.n.V.e.n.z.V.d.Z c c u.D q.t.V t.x.n.a.H d.V.T.Z.w.D N w.z l D N w.Z 6.",
"m 7.F F h.t.c.u t %..XoX.X .) e $.v.c.m.R.I.n.d.i.j.j e.6.a a D l.F D D y.c d.w.t.Z m d r.N d.d.Z w.",
"c N F D n.C.u H.gXnXbXxXyX7X{.] J , ) $.m.C.Z.m.n.e.l D e.9.z c e.f q.c i.i.V.l.t.a.e.q.q.y.C.9.h e.",
"l Z z x.Z t.sXBXVXNXmXxXjXwX:X[.O.T % $ 6 #.R.I.l q.r.i.i.N h 9.c =.i.9.q.r.y.z.Z Q.S.c B t.c g c q.",
"s a c w.#.hXCXCXNXnXxXlXrX7X-X[.(.} Y 3 X o @.-.r.d.c Z t.q.d c V.i.y.N D d.c z D v.I.r.q.q.N N f.f.",
"z l Z.s gXCXCXNXnXxXlXrX8X-XoX'.O.} T L < #   > @.G e.D t.c Z 8.H 9.i.y.h D y.9.D y.q.Z D i.q.y.q.c ",
"l t.r 5XVXVXNXnXxXjXrX8X-X@X'.(.../ U L 1 & @ . $ _ $.w.c S.i.d.n.y.j r y.=.b.6.D i.D b.d.y.V F.G k ",
"w.u .XMXVXNXnXxXjXrX8X:X@X'.(...[ T I K 1 = $ O .   , -.v.V.n.v.N.y.N Q.x.9.i.t.t.d.w.y.i.C.G.z.j j.",
"e.r sXVXNXnXxXjXrX8X:X@X'.O...[ T I L 3 < = * + O X   > | G.~.G.Q.W.w.D t.k w.v.t.i.l.n.N S.b.l e.V.",
"4.+.bXBXnXvXlXrX8X:X@X'.(...[ T I L 7 < - = * + + O O   o ~ ;.T.R.A.w.h t.m q.D i.9.q.w.x.y.y.l n.s.",
"3.=XmXMXvXzXyX8X:X@X'.(...[ T I L 7 < < = = * + + + + + .   > #.N.m.q.q.w.D h.i.y.i.n.d.W.n.b.G G s.",
"y 7XbXbXzXyX9X:X@X'.(...[ T I L 7 < < - - * * * * + + + X X .   9 #.x.i.D N t.Z.S.w.t.y.N R.s.S z.d.",
"r 0XbXzXyXwX6X#X[.(.X.[ T I L 7 < < - - - * - ; * * * * * + + #   o q $.V r.i.i.n.N.z.V i.w.D m i.y.",
"v wXxXjXwX7X#X[._.X.} T I L 7 3 < < - : : : : : 2 2 : : : : : * * # o o - p -.*.c.t.N m.m.r.F m w.d.",
"#.0XlXtX7X-X{._.O.} T Y P 7 3 < - - : : 2 5 5 5 8 8 0 0 E 0 0 8 5 6 5 :         w p A *.x.N.t.j c y.",
"b 6XtXwX6X}.'.(.} / Y I 7 3 < - : : : 5 5 8 E Q Q ! ^ _ ` ` | | { { { { <.OX*X>X,X*X+X1.1.-.V d D d ",
"m }.0X6X$X[.(.../ Y I 7 3 < - : : 2 5 8 W Q ^ ` |  .:.,. X XXX%X>X4XsXgXkXdXpX3X&XJ.F.c.L.k.9.k l r.",
"z /.6X6X{.).o.' T I L 4 < - - : 2 5 0 Q ! `  .>.<. XOX*X>X2XpXdXcXcXfXeX<XJ.N y 4.k 8.e.9.9.q.j.r.c ",
"c ] |.|.].O.} T I L 7 < - - : : 5 0 Q _ ` :.<.XX+X>X<XiXaXdXcXkXeX8X,XJ.C 8.c m r.l i.m q.9.Z w.t.c ",
"q.) `.{.(.} / U P 4 < - - - : 5 8 Q _ | >. X+X>X2XiXaXdXkXkXqX6X1X&Xe.y N q.N N q.c l c e.9.t.7.z r.",
"V.v ( ).o./ T P 4 1 - - * : 2 5 W ^ | >. X+X,X2XpXdXgXkXaX:X7X<XG.k.d.i.i.D a h l D w.D q.i.N y.9.z ",
"c b P ] ' T I K 1 = = * * : 5 0 Q ` >. X+X,X4XaXdXdXdX1X;XeX&X0.n.v.C.l.T.D w q.w.c D N q.c.N.9.G n ",
"N D e J T U K < = & & * * : 5 W _ :.<.OX,X4XaXdXdXqX#X7XpXF.3.Q.G.9.6.m V.t.M r.p.s D i.q.N.!.c.y.Z ",
"q.y.z.3 K K 1 = & * * * * : 5 Q ` >.XX>X2XpXaXpX>X}.rX<X3.w.A.x.N.w.i.x.R.I.i.D q.8.t.e.e.G N.n.z D ",
"q.G n.v > < = & $ + + * * : 5 Q ` ,.XX>X2X2X2XoX;XeXJ.t *.S.m.b.t.n.i.C.l.C.C.n.h.k =.y.x n.y.S n.a.",
"U.G m N ) % * $ O + + + * : 5 W ` >.XX*X*XXX].wXiX*.t v.b.t.y.I.I.R.c Z.G c.R.Z.r.D j.y.t.q.d.q.n.i.",
"d.m B S x.@.% O @ X X + + * : 0 ^ | :.:.O.-XeXuX4.c t.n.n.w.n.N.S.m.q.N x.j.I.C.c i.9.t.y.q.d.d.d.B ",
"F y.V.v.t.q.#.K o   . . X X # ; : 1 / oX8XiXN.i z.t.z.Z.D A.n.S.V.i.t.l N t.g m F Z w.q.t.r.q.t.t.D ",
"b.c.c.q.N G Z.$.%._ 1 % % % 1 U X.OX1X3X^.3.c V t.v.N.a.H n.B.A.Z.q.N t.9.m N e.r.e.w.h.x.G n.i.C.S.",
"~.C.d.V q.e.m.m 7.Q.F.&.%.>.<.XX&XJ.A.y r.B.c.m m Z.n.n.t.i.x.=.N.M N D q.e.D q.e.c N w.U.N.q.t.t.q.",
"q.s.l.n.S.i.g x.U.q.K.r.q.r.D k y t y.M.a.i.R.x.t.u.S.r.i.P.C.n.x.Y.S.z V.c q.w.q.c q.y.i.n.b.*.H d.",
"p.H C.d.q.G m y.m.D e.N D y.q.t.m i.z q.D a.S.N c.V y.l.t.C.Z.G N L.Y.y.i.q.9.9.g.w.r.H D r.m G U.b.",
"V.w.F i.q.V.m m N i.D b.d.y.V G G d.w.q.r.i.t.u.B a.W.j.y.t.y.y.V.h e.D q.i.m c e.e.f.y.i.t.y.n.y.x.",
"B c q.i.i.q.b n.G w.i.y.d.C.b.m N t.y.j i.G N i.y.i.i.G i.D a z.S s 7.7.c m q.c c i.c V.t.t.C.x.i.y.",
"a l e.c D A.N z B i.l.n.G d.H n N H n.N.n.V a.P.N c.m.S g 6.N S S i.m x e.m e.c l l q.N l t.m.v.m q.",
"c w.G y.r.i.D N c 5.q.i.N D G c.b.x.N.F.b.G w.w.D l y.z D x t.v.Q.t.t.c i.m N c q.D 9.l z e.A.F c e.",
"c N i.S.T.W.C.l c 9.q.d.S.x.x.V.i.n.z.S.i.V F.n V.!.D D N l i.W.^.v.Z.t.x.F.x.N e.q.t.d.c x.U.w.l w.",
"9.c i.V.S.y.q.5.q.D t.y.N Y.I.d.x.x.q.l.H t.n.D D !.w.G q.c H y.A.V.V.x.y.n.G q.z d.T.n.w.D q.9.k c ",
"9.r.Z i.k.D e.q.p.r.c.V i.q.d.K.A.m.m.q.m c 9.l g h t.C.N N Z.m.N a.n.Z.N l r.V.y.q.i.q.i.c q.C.q.9.",
"i.k.N l q.w.e.H a.F B n.S.i.F d.C.i.G N N s D S Y.h 6.2.q.C.T.h.n.W.t.i.C.G m e.k.q.x r.i.b N f.h.q."
};
